<svg width="140" height="36" viewBox="0 0 140 36" fill="none" xmlns="http://www.w3.org/2000/svg">
<path d="M3.64362 19.7099C5.84077 19.2232 8.0646 18.8659 10.3036 18.6399C12.1736 18.5399 13.1136 17.9099 13.6336 16.0899C14.8736 11.7799 16.4036 7.55985 17.6336 3.23985C17.7717 2.52193 18.1622 1.87716 18.7345 1.42225C19.3068 0.967344 20.0231 0.732366 20.7536 0.759854C24.7536 0.399854 25.5736 0.899854 26.7536 4.75985C29.587 13.6932 32.3903 22.6399 35.1636 31.5999C35.3736 32.2799 35.5136 32.9999 35.6736 33.6899C31.5136 35.0399 29.9436 34.5499 27.4536 31.3599C21.4536 23.7099 13.4536 20.4199 3.94362 20.3599C3.78123 20.3444 3.62058 20.3143 3.46362 20.2699L3.64362 19.7099ZM26.0036 22.5099L22.0036 8.17985H21.3836L18.3536 18.8099L26.0036 22.5099Z" fill="#1C5598"/>
<path d="M97.8336 23.9H82.6136C81.9336 29.07 86.0136 30.63 95.3536 28.81L96.6036 33.16C91.3436 34.71 86.3836 35.37 81.6036 32.92C76.8236 30.47 76.0036 26 76.1736 21.21C76.5336 13.13 82.8636 8.21003 90.3936 10.1C92.388 10.5913 94.177 11.698 95.5071 13.2632C96.8371 14.8283 97.6406 16.7725 97.8036 18.82C97.9052 20.5116 97.9152 22.2074 97.8336 23.9ZM91.9036 19.8C91.5436 15.95 89.6736 14.12 86.7936 14.43C86.1535 14.4681 85.5291 14.6437 84.963 14.9449C84.3969 15.2462 83.9024 15.666 83.5133 16.1757C83.1241 16.6853 82.8495 17.2729 82.708 17.8984C82.5666 18.5239 82.5617 19.1725 82.6936 19.8H91.9036Z" fill="#1C5598"/>
<path d="M132.844 18.7094C132.844 16.1994 131.584 14.8694 129.044 14.8294C127.8 14.7776 126.554 14.801 125.314 14.8994C121.734 15.2894 121.604 15.1994 121.314 11.2994C125.454 9.87939 129.694 9.37939 133.914 10.8594C137.304 12.0394 138.724 14.8594 138.834 18.2694C138.964 22.7594 138.934 27.2694 138.834 31.7494C138.834 32.4094 138.004 33.5894 137.504 33.6194C133.314 33.8594 129.064 34.2894 124.924 33.8394C121.444 33.4694 119.714 30.8394 119.574 27.6194C119.394 23.6194 120.704 21.2494 124.354 20.1494C127.149 19.4854 129.985 19.0044 132.844 18.7094ZM132.594 22.9994C129.954 22.7594 127.254 22.1394 125.694 24.6694C125.427 25.2841 125.315 25.9552 125.37 26.6232C125.424 27.2912 125.641 27.9356 126.004 28.4994C127.794 30.4994 130.244 30.1594 132.634 29.3494L132.594 22.9994Z" fill="#1C5598"/>
<path d="M54.9336 11.31L53.8436 15.08C51.8222 14.6996 49.7705 14.5021 47.7136 14.49C46.7136 14.55 45.8536 15.72 44.9236 16.39C45.5933 17.3076 46.3465 18.1613 47.1736 18.94C47.8312 19.2945 48.551 19.5186 49.2936 19.6C54.0936 20.95 55.5036 22.6 55.4636 26.7C55.4636 30.53 53.3336 33.12 49.0036 34.07C45.4084 34.9852 41.6103 34.6719 38.2136 33.18C38.3936 32.18 38.5336 31.41 38.7136 30.61C39.0036 29.34 39.6336 28.94 41.0436 29.23C42.8847 29.6576 44.7851 29.7692 46.6636 29.56C47.7136 29.39 48.5836 28.08 49.5336 27.28C48.8448 26.272 48.0317 25.3548 47.1136 24.55C46.0694 24.0442 44.9633 23.6777 43.8236 23.46C40.0836 22.23 38.5636 20.33 38.6436 17.07C38.6257 15.5059 39.1622 13.986 40.1579 12.7797C41.1537 11.5734 42.5445 10.7587 44.0836 10.48C47.6906 9.52737 51.5135 9.81981 54.9336 11.31Z" fill="#1C5598"/>
<path d="M73.2136 29.51C73.4306 30.4347 73.581 31.3738 73.6636 32.32C73.6636 32.82 73.3236 33.78 73.1336 33.78C70.3736 33.78 67.5336 34.01 64.8736 33.44C62.2136 32.87 61.2836 30.61 61.1436 28.11C61.0036 25.79 61.0636 23.45 61.0436 21.11C61.0436 20.19 60.9736 19.27 61.0436 18.37C61.2236 16.1 60.9836 14.26 57.0936 15.03L66.1536 3.54004L66.8836 3.74004C66.9586 5.00893 66.9586 6.28115 66.8836 7.55004C66.5836 9.98004 67.5736 10.91 69.9536 10.55C71.9536 10.26 73.3636 10.83 72.8136 13.17C72.6387 13.5563 72.3886 13.9038 72.0778 14.1923C71.767 14.4808 71.4018 14.7044 71.0036 14.85C70.2816 15.0414 69.525 15.0619 68.7936 14.91C67.4136 14.82 66.7936 15.42 66.8736 16.81C66.9336 19.05 66.8736 21.3 66.8736 23.54C66.9036 28.77 67.7936 29.64 73.2136 29.51Z" fill="#1C5598"/>
<path d="M108.714 13.4494C110.083 12.3654 111.557 11.4207 113.114 10.6294C116.114 9.43943 116.944 10.0994 116.894 13.3594C116.894 14.0194 116.814 14.6694 116.764 15.3594C116.361 15.5126 115.946 15.633 115.524 15.7194C110.614 16.3594 109.624 17.2594 109.234 22.2594C109.009 25.3309 108.969 28.4131 109.114 31.4894C109.214 33.7594 108.474 34.7194 106.174 34.4094C105.148 34.3527 104.12 34.3527 103.094 34.4094V28.0494C103.094 23.0494 103.094 18.0494 103.094 13.0494C103.094 11.7894 102.654 10.2194 104.794 10.1794C106.544 10.1794 108.234 10.1794 108.404 12.5294C108.47 12.8472 108.574 13.156 108.714 13.4494Z" fill="#1C5598"/>
<path d="M8.66357 33.7999L11.9436 23.3799C13.2093 23.7315 14.4462 24.1795 15.6436 24.7199C15.8899 24.9236 16.0838 25.1833 16.2091 25.4773C16.3344 25.7714 16.3873 26.0912 16.3636 26.4099C16.0657 27.8661 15.6885 29.3049 15.2336 30.7199C14.0936 34.7199 13.3336 35.1099 8.66357 33.7999Z" fill="#F4821F"/>
</svg>
