<svg width="100" height="36" viewBox="0 0 100 36" fill="none" xmlns="http://www.w3.org/2000/svg">
<g clip-path="url(#clip0_1740_2025)">
<path d="M0.437317 32.5653C0.437317 31.8056 1.98961 30.1212 2.51805 30.1212C3.22814 30.1212 5.14374 32.846 8.56209 32.846C10.5603 32.846 11.7658 31.7891 11.7658 30.1212C11.7658 28.2221 9.76759 27.5946 7.48869 26.835C4.51622 25.8607 1.18044 24.7873 1.18044 21.1543C1.18044 17.3396 4.38411 14.9286 9.09053 14.9286C13.4832 14.9286 15.3988 16.8937 15.3988 17.6533C15.3988 18.3634 13.9621 20.0974 13.2685 20.0974C12.7896 20.0974 11.7162 17.9671 8.72723 17.9671C6.81163 17.9671 5.42447 19.024 5.42447 20.5598C5.42447 22.4588 7.34007 23.0038 9.55291 23.6809C12.5419 24.5726 16.0428 25.5469 16.0428 29.4772C16.0428 33.391 12.8392 35.9836 8.47952 35.9836C3.80613 36.0332 0.437317 33.3249 0.437317 32.5653ZM30.8887 33.8038C29.7327 34.646 27.4538 36.0332 24.5144 36.0332C20.7823 36.0332 17.9419 34.1176 17.9419 30.2038C17.9419 25.1671 22.4667 23.846 27.8171 22.5414C29.452 22.1451 30.3437 21.8313 30.3437 21.1708C30.3437 19.4699 28.9566 18.3304 26.2979 18.3304C23.0942 18.3304 21.0135 20.1139 20.3364 20.1139C20.0226 20.1139 19.9401 19.9488 19.9401 19.5855C19.9401 19.0405 20.1713 17.9836 20.5511 17.0588C20.9474 16.2662 23.7878 14.9121 26.8593 14.9121C32.6061 14.9121 34.7694 17.5047 34.7694 22.657V30.8974C34.7694 32.1359 35.2483 32.6313 36.2061 32.6809C36.2887 32.6809 37.1309 32.7139 37.1474 32.7139C37.4281 32.7139 37.5437 32.7965 37.5437 33.0277C37.5437 33.7873 35.8593 36.0001 34.4226 36.0001C32.0612 36.0001 30.9547 34.1671 30.8887 33.8038ZM26.1823 32.7799C28.4942 32.7799 30.4098 31.3433 30.4098 30.5011V25.2662C30.4098 25.035 30.2777 24.8699 30.0135 24.8699C29.7327 24.8699 29.1713 25.002 28.4942 25.1836C25.9511 25.9763 22.3511 26.7855 22.3511 29.7579C22.3511 31.8717 24.019 32.7965 26.1823 32.7799ZM70.6538 33.8038C69.4979 34.646 67.219 36.0332 64.2465 36.0332C60.5474 36.0332 57.707 34.1176 57.707 30.2038C57.707 25.1671 62.2318 23.846 67.5823 22.5414C69.2171 22.1451 70.1089 21.8313 70.1089 21.1708C70.1089 19.4699 68.7217 18.3304 66.063 18.3304C62.8593 18.3304 60.7786 20.1139 60.1015 20.1139C59.7878 20.1139 59.7052 19.9488 59.7052 19.5855C59.7052 19.0405 59.9364 17.9836 60.3162 17.0588C60.7125 16.2662 63.5529 14.9121 66.6245 14.9121C72.3713 14.9121 74.5346 17.5047 74.5346 22.657V30.8974C74.5346 32.1359 75.0135 32.6313 75.9713 32.6809C76.0538 32.6809 76.896 32.7139 76.9126 32.7139C77.1933 32.7139 77.3089 32.7965 77.3089 33.0277C77.3089 33.7873 75.6245 36.0001 74.1878 36.0001C71.8263 36.0001 70.7199 34.1671 70.6538 33.8038ZM65.9144 32.7799C68.2263 32.7799 70.1419 31.3433 70.1419 30.5011V25.2662C70.1419 25.035 70.0098 24.8699 69.7456 24.8699C69.4648 24.8699 68.9034 25.002 68.2263 25.1836C65.6832 25.9763 62.0832 26.7855 62.0832 29.7579C62.1162 31.8717 63.7676 32.7965 65.9144 32.7799ZM38.5181 10.4699C38.5181 10.0735 38.8318 9.75977 40.6483 9.75977C42.4814 9.75977 42.7951 10.0735 42.7951 10.4699V17.5047C42.7951 17.5047 45.1896 14.9121 49.0208 14.9121C53.2483 14.9121 56.7658 18.5946 56.7658 24.7047C56.7658 32.6644 51.7786 36.0166 46.5768 36.0166C41.9529 36.0166 38.5181 33.5396 38.5181 31.2111V10.4699ZM42.8116 21.8148V30.0056C42.8116 31.5249 44.5786 32.8955 46.8905 32.8955C49.863 32.8955 52.0428 30.8148 52.0428 24.9359C52.0428 19.8992 49.896 18.3965 47.2373 18.3965C44.8593 18.3799 42.8116 20.6093 42.8116 21.8148Z" fill="#4A4F54"/>
<path d="M95.4087 12.0223C93.6417 9.75994 92.6178 7.00215 92.5188 4.11224L92.4362 1.40398C92.4032 0.165451 90.8839 -0.379503 90.0747 0.545268L88.638 2.1471L88.06 2.77463C87.8784 2.9893 87.6637 3.17096 87.449 3.35261C88.4564 9.31408 89.8766 10.9654 95.4087 12.0223Z" fill="#76BC21"/>
<path d="M77.21 11.5762C77.4247 11.7578 77.6064 11.9725 77.788 12.1872C83.7495 11.1633 85.3844 9.77616 86.4578 4.22754C84.1954 5.99451 81.4376 7.01836 78.5477 7.11745L75.8394 7.20002C74.6009 7.24956 74.0559 8.75231 74.9807 9.56148L76.5825 10.9982L77.21 11.5762Z" fill="#00A7E1"/>
<path d="M99.0578 15.655L97.456 14.2183L96.8285 13.6403C96.6138 13.4587 96.4321 13.244 96.2505 13.0293C90.289 14.0532 88.6541 15.4403 87.5807 21.022C89.8431 19.255 92.6009 18.2311 95.4908 18.132L98.1991 18.0495C99.4376 17.9504 99.9826 16.4642 99.0578 15.655Z" fill="#F18A00"/>
<path d="M78.6629 13.1445C80.4299 15.4069 81.4537 18.1647 81.5528 21.0546L81.6354 23.7629C81.6684 25.0014 83.1877 25.5464 83.9968 24.6216L85.4335 23.0198L86.0115 22.3922C86.1932 22.1776 86.4079 21.9959 86.6225 21.8143C85.5987 15.8528 84.195 14.2344 78.6629 13.1445Z" fill="#A81B8D"/>
<path d="M78.5477 34.4809C78.5477 33.6222 79.2578 32.9121 80.1165 32.9121C80.9752 32.9121 81.6853 33.5892 81.6853 34.4809C81.6853 35.3396 81.0082 36.0497 80.1165 36.0497C79.2578 36.0497 78.5477 35.3396 78.5477 34.4809ZM78.7293 34.4809C78.7293 35.2405 79.3403 35.8516 80.1 35.8516C80.8596 35.8516 81.4706 35.224 81.4706 34.4809C81.4706 33.7213 80.8596 33.1103 80.1 33.1103C79.3403 33.1103 78.7293 33.7213 78.7293 34.4809ZM80.0834 34.6956H79.7367V35.4057H79.522V33.6222H80.2651C80.5789 33.6222 80.8101 33.8369 80.8101 34.1672C80.8101 34.5635 80.4468 34.6956 80.3642 34.6956L80.8431 35.4057H80.5789L80.0834 34.6956ZM79.7367 33.8039V34.4809H80.2651C80.4798 34.4809 80.5789 34.3158 80.5789 34.1341C80.5789 33.9195 80.4798 33.7873 80.2651 33.7873H79.7367V33.8039Z" fill="#4A4F54"/>
</g>
<defs>
<clipPath id="clip0_1740_2025">
<rect width="99.0826" height="36" fill="white" transform="translate(0.503723)"/>
</clipPath>
</defs>
</svg>
