<svg width="166" height="32" viewBox="0 0 166 32" fill="none" xmlns="http://www.w3.org/2000/svg">
<g clip-path="url(#clip0_1740_2032)">
<path d="M25.5863 8.12539H23.4763C22.5263 6.81539 22.9863 5.32539 22.9163 3.90539C22.8563 2.90539 22.6963 2.10539 21.3563 2.63539C20.2063 3.06539 19.0863 3.63539 17.9263 4.01539C17.7275 4.11227 17.5239 4.19905 17.3163 4.27539C16.7063 4.50539 16.1263 4.81539 15.5263 5.06539C14.9263 5.31539 14.5263 5.43539 13.9863 5.68539C11.9863 6.68539 9.7763 7.47539 7.7163 8.47539C6.0063 8.97539 4.4863 9.92539 2.7863 10.4754C2.49792 10.5903 2.21732 10.724 1.9463 10.8754C1.70009 11.0509 1.43513 11.1984 1.1563 11.3154C1.04921 11.3443 0.935621 11.3374 0.832762 11.2959C0.729903 11.2544 0.643379 11.1805 0.586304 11.0854C0.586304 8.15539 0.696304 5.21539 0.586304 2.27539C0.586304 1.04539 0.876304 0.775391 2.1163 0.775391C10.4263 0.835391 18.7263 0.775391 27.0263 0.775391L26.9663 1.45539C26.3566 2.66706 26.0936 4.02366 26.2063 5.37539C26.1863 6.33539 26.3563 7.32539 25.5863 8.12539Z" fill="#FEFEFE"/>
<path d="M0.586304 11.085H1.0963C1.60912 11.8884 1.88158 12.8218 1.88158 13.775C1.88158 14.7281 1.60912 15.6615 1.0963 16.465H0.586304V11.085Z" fill="#F8FEFE"/>
<path d="M59.8363 1.23535H63.4763C64.6063 1.96535 65.9563 2.34535 66.8863 3.38535C67.2263 3.92535 67.9563 4.38535 67.3863 5.16535C66.2363 5.96535 65.2063 6.70535 63.9063 5.16535C63.2363 4.39535 61.9963 4.33535 60.9063 4.23535C60.6119 4.24769 60.324 4.32491 60.0629 4.46147C59.8019 4.59804 59.5743 4.79059 59.3963 5.02535C58.0763 7.28535 59.7063 7.91535 61.3963 8.56535C64.0163 9.56535 67.1163 9.83535 68.3963 12.9254C68.6866 13.8361 68.6866 14.8146 68.3963 15.7254C67.8151 16.813 66.9805 17.7446 65.9631 18.4415C64.9457 19.1384 63.7755 19.5801 62.5514 19.7292C61.3272 19.8783 60.0852 19.7304 58.9303 19.2981C57.7754 18.8657 56.7416 18.1617 55.9163 17.2454C55.4263 16.6554 54.0363 15.8454 55.5563 14.9154C56.4763 14.3554 57.2863 13.1454 58.6363 14.7554C60.3663 16.8254 62.1963 16.8554 64.8463 15.4554C65.1663 14.6254 65.4363 13.8054 64.6563 13.0654C62.8363 12.4054 61.0063 11.7754 59.2063 11.0654C57.6363 10.4954 56.0463 9.77535 55.8963 7.77535C55.5961 6.89353 55.5961 5.93717 55.8963 5.05535C56.2063 2.77535 57.6663 1.65535 59.8363 1.23535Z" fill="#030303"/>
<path d="M95.8463 17.9451V14.5051C96.1613 13.5573 96.1613 12.533 95.8463 11.5851C95.1963 9.83513 94.0463 8.86513 92.0363 9.20513C91.6523 9.28424 91.2948 9.45977 90.9974 9.71519C90.7 9.97061 90.4725 10.2975 90.3363 10.6651C90.3363 13.0051 90.1463 15.3551 90.2263 17.6651C90.2863 19.1551 89.6163 19.3451 88.3363 19.4051C86.8463 19.4751 86.7763 18.7551 86.7863 17.6451C86.7863 14.6451 86.9363 11.6451 86.7863 8.64513C86.6663 6.55513 87.4663 6.05513 89.3363 6.64513C89.9963 6.64513 89.7863 8.04513 90.7663 7.46513C94.0763 4.99513 97.0863 6.06513 98.8563 10.3451C99.2763 12.6551 98.9763 14.9751 99.0263 17.3451C99.0263 18.0551 99.3963 19.0651 98.1063 19.1751C97.0863 19.2251 96.0563 19.3151 95.8463 17.9451Z" fill="#040404"/>
<path d="M119.646 4.07561C119.87 3.68133 120.232 3.38366 120.662 3.2397C121.092 3.09575 121.56 3.11566 121.976 3.29561C123.066 3.64561 122.246 4.48561 122.216 5.08561C122.156 6.59561 123.216 6.57561 124.216 6.49561C125.216 6.41561 125.836 6.73561 125.786 7.96561C125.736 9.19561 125.666 9.90561 124.206 9.65561C122.966 9.43561 122.636 10.0656 122.716 11.1856C122.796 12.3056 122.716 13.4556 122.716 14.5956C122.716 15.7356 123.026 16.5956 124.366 16.4556C126.046 16.2756 125.686 17.3756 125.746 18.3056C125.826 19.5856 124.956 19.4856 124.116 19.5156C120.896 19.6256 119.556 18.4256 119.416 15.2656C119.356 14.0456 119.416 12.8256 119.416 11.6156C119.416 10.4056 119.636 9.61561 117.896 9.55561C116.556 9.55561 117.206 8.16561 117.186 7.41561C117.186 6.02561 118.186 6.56561 118.976 6.62561C119.986 5.96561 119.116 4.84561 119.646 4.07561Z" fill="#030303"/>
<path d="M34.5163 11.535C33.6208 11.416 32.7632 11.0983 32.0063 10.605C31.3363 9.85504 30.3263 9.96504 29.4863 9.60504C28.9097 9.15558 28.4614 8.56242 28.1863 7.88504C27.7063 6.88504 26.7263 5.61504 27.6163 4.79504C28.5063 3.97504 29.8263 3.09504 31.3763 3.77504C33.2863 4.55504 35.3763 4.91504 37.0963 6.16504C36.9063 7.63504 35.3563 8.77504 36.0363 10.575C36.4063 11.585 35.0863 11.275 34.5163 11.535Z" fill="#02E0FB"/>
<path d="M34.5163 11.5355C34.6663 10.9555 35.9863 11.1955 35.6063 10.5355C34.3163 8.38547 35.9963 7.37547 37.0963 6.10547C38.808 6.54203 40.4505 7.21518 41.9763 8.10547C43.2963 10.0355 43.1463 10.8855 41.1163 13.1055C40.8964 13.3584 40.6403 13.5774 40.3563 13.7555C39.9663 13.9355 39.5663 14.1255 39.1463 13.8155C37.9763 12.3755 35.9063 12.6155 34.5163 11.5355Z" fill="#02DBFD"/>
<path d="M31.0163 23.7759L27.2363 25.3659C26.5663 25.5459 25.7463 25.6359 25.8863 24.6759C26.1663 22.7759 25.2863 20.8659 26.0463 19.0059L31.0463 17.0059C32.4663 18.6759 32.0463 20.7359 32.3263 22.6559C32.0463 23.1959 31.3863 23.3359 31.0163 23.7759Z" fill="#0187E5"/>
<path d="M17.5863 3.77545C18.6302 3.05346 19.8058 2.54379 21.0463 2.27545C22.5263 1.69545 23.2763 2.27545 23.2663 3.75545C23.2563 5.23545 23.5463 6.63545 23.0363 8.03545C21.5825 9.13604 19.8903 9.87938 18.0963 10.2055C17.6173 9.89144 17.2669 9.41582 17.1091 8.8652C16.9512 8.31458 16.9964 7.72558 17.2363 7.20545C17.5632 6.09343 17.6819 4.93059 17.5863 3.77545Z" fill="#03E4FB"/>
<path d="M7.52629 7.99559C9.61757 6.86814 11.8106 5.94069 14.0763 5.22559C15.0763 5.48559 15.4763 6.22559 15.0763 7.02559C14.2363 9.02559 15.4763 9.88559 17.0263 10.6056C14.7998 11.6938 12.472 12.5613 10.0763 13.1956C9.80629 11.5356 9.58629 9.87559 7.77629 9.02559C7.68798 8.97848 7.61063 8.91324 7.54931 8.83414C7.48799 8.75504 7.44409 8.66387 7.42048 8.56661C7.39688 8.46935 7.3941 8.36819 7.41233 8.26978C7.43057 8.17137 7.4694 8.07793 7.52629 7.99559Z" fill="#04DDFD"/>
<path d="M20.5063 24.7752C19.277 24.4966 18.1104 23.9913 17.0663 23.2852C17.2163 21.1252 17.2863 18.9352 19.0663 17.2852L20.5463 17.9252C21.6368 18.4271 22.4873 19.3364 22.9154 20.458C23.3434 21.5796 23.3151 22.8242 22.8363 23.9252C22.3563 24.9152 21.4263 24.8752 20.5063 24.7752Z" fill="#0285E5"/>
<path d="M7.52631 7.99512C7.82632 8.36108 8.18442 8.67527 8.58631 8.92512C10.8663 9.77512 10.8963 11.3251 10.0863 13.1951C10.0989 13.2638 10.0853 13.3347 10.0483 13.3939C10.0113 13.4531 9.95353 13.4963 9.88631 13.5151C9.01631 14.2951 8.19631 13.6951 7.36631 13.4151C6.05631 12.7151 4.58631 12.4151 3.23631 11.8351C2.58631 11.5451 1.51631 11.3951 2.10631 10.1851L7.52631 7.99512Z" fill="#04D9FD"/>
<path d="M39.1463 13.8652L39.9663 13.5752C40.0515 13.648 40.1198 13.7385 40.1665 13.8404C40.2131 13.9423 40.2369 14.0531 40.2363 14.1652C39.2363 16.0552 40.2363 18.0052 40.0363 19.9252C39.0363 20.9252 37.6363 20.7152 36.5563 21.4052C33.8863 20.0952 33.5863 17.2752 35.9863 15.0852L39.1463 13.8652Z" fill="#036FE1"/>
<path d="M31.3763 3.77517C30.0463 3.48517 29.5863 5.30517 28.0963 4.99517C27.7163 4.92517 27.9063 6.25517 28.1963 6.60517C28.9463 7.52517 29.0063 8.67517 29.5063 9.65517C28.1038 9.43659 26.766 8.91443 25.5863 8.12517C25.5863 6.37517 25.5863 4.61517 25.5863 2.86517C25.5863 2.02517 25.5863 1.17517 26.8863 1.48517L31.3763 3.77517Z" fill="#06E5FA"/>
<path d="M17.0763 10.6054C14.2063 10.5154 13.5863 9.87539 14.5863 7.36539C14.9363 6.36539 14.5063 5.88539 14.1163 5.22539C14.2776 5.03313 14.4824 4.88206 14.7137 4.78468C14.9449 4.6873 15.1961 4.6464 15.4463 4.66539C15.9963 4.36539 16.8263 4.66539 17.1363 3.90539L17.5863 3.77539C18.3263 4.49539 18.8863 5.33539 18.2263 6.31539C17.3163 7.63539 17.6963 8.90539 18.0963 10.2254C17.9812 10.3805 17.8236 10.4989 17.6426 10.5663C17.4616 10.6338 17.2649 10.6473 17.0763 10.6054Z" fill="#02E0FC"/>
<path d="M40.0363 19.9258C39.2663 17.9258 38.1863 16.0058 39.9863 14.0158C41.2963 13.3258 42.3563 14.1758 43.4963 14.5458C43.6545 14.6246 43.7927 14.7386 43.9001 14.879C44.0076 15.0194 44.0815 15.1825 44.1163 15.3558C43.7663 16.3558 43.1163 17.3558 43.5163 18.4458C42.4504 19.1363 41.273 19.637 40.0363 19.9258Z" fill="#0363E1"/>
<path d="M19.0863 17.3552C18.8163 19.2252 17.2563 20.8352 17.8663 22.9152C17.6153 23.0803 17.347 23.2178 17.0663 23.3252C16.2856 23.2366 15.5483 22.9201 14.9463 22.4152C15.1363 20.8652 15.6663 19.3252 14.7463 17.7852C14.5935 17.4996 14.5429 17.1703 14.6029 16.852C14.6629 16.5337 14.83 16.2455 15.0763 16.0352C16.5102 16.0909 17.8997 16.5482 19.0863 17.3552Z" fill="#047DE3"/>
<path d="M6.92631 19.0057C4.98166 18.5499 3.14642 17.7138 1.52631 16.5457C1.6475 16.3364 1.81946 16.161 2.02631 16.0357C3.24314 15.4249 4.50723 14.9132 5.80631 14.5057C6.21078 14.4471 6.62307 14.4743 7.01631 14.5857C9.04631 16.4657 9.00631 18.0757 6.92631 19.0057Z" fill="#045CDC"/>
<path d="M40.4863 13.0558C41.9363 11.7058 42.8763 10.2158 41.9763 8.17578C43.9051 8.72341 45.7491 9.53438 47.4563 10.5858C46.8063 11.9958 45.2463 11.8158 44.1463 12.4458C43.28 12.8234 42.3835 13.1278 41.4663 13.3558C41.2909 13.3909 41.1095 13.3818 40.9385 13.3294C40.7674 13.2771 40.6121 13.183 40.4863 13.0558Z" fill="#04D7FD"/>
<path d="M160.966 11.5458C161.088 10.3491 161.467 9.19288 162.076 8.15577C162.296 7.72483 162.673 7.39558 163.13 7.23709C163.587 7.07861 164.087 7.10323 164.526 7.30577C165.266 7.56577 165.386 8.15577 165.126 8.84577L164.126 11.5958C163.036 12.7758 161.996 12.3358 160.966 11.5458Z" fill="#09CBF7"/>
<path d="M143.156 8.15492C142.516 6.29492 144.416 6.81492 145.076 6.15492C145.597 5.9569 146.16 5.89522 146.711 5.97573C147.262 6.05623 147.784 6.27626 148.226 6.61492C149.226 7.06492 151.376 5.37492 151.136 8.12492C149.881 8.68336 148.523 8.97442 147.149 8.97958C145.776 8.98475 144.416 8.70391 143.156 8.15492Z" fill="#03B7F4"/>
<path d="M145.116 17.4556V13.5356C147.856 12.4656 148.386 12.8556 148.256 15.8456C148.62 16.9943 148.563 18.2348 148.096 19.3456C147.844 18.7699 147.426 18.2826 146.895 17.9459C146.364 17.6092 145.745 17.4385 145.116 17.4556Z" fill="#0A7CEA"/>
<path d="M13.5863 21.9349C12.8085 21.8368 12.0845 21.4854 11.5263 20.9349C12.5263 18.8249 11.7763 16.6749 11.6263 14.5449C12.2025 14.5808 12.7654 14.733 13.281 14.9926C13.7966 15.2521 14.2543 15.6135 14.6263 16.0549C14.6763 18.0849 15.5263 20.2449 13.5863 21.9349Z" fill="#0473E3"/>
<path d="M143.156 8.15527H151.156C151.376 9.07527 151.316 9.80527 150.066 9.75527C149.741 9.70679 149.409 9.72713 149.092 9.81498C148.775 9.90283 148.48 10.0562 148.226 10.2653C147.226 9.76527 146.116 10.2653 145.066 10.1653C144.306 9.58527 142.506 9.98527 143.156 8.15527Z" fill="#03AEF2"/>
<path d="M43.9663 12.065C44.9663 11.175 46.3763 11.265 47.4563 10.585C48.2167 12.5955 48.2167 14.8144 47.4563 16.825C47.1645 16.8578 46.8694 16.8053 46.6068 16.674C46.3441 16.5427 46.1252 16.3381 45.9763 16.085C45.5863 14.605 45.7363 12.875 43.9663 12.065Z" fill="#07B9FC"/>
<path d="M158.976 14.0451C159.366 14.6451 159.746 14.5351 160.116 14.0451C161.236 13.4051 162.336 12.8851 163.056 14.5451C162.947 15.4576 162.602 16.326 162.056 17.0651C160.266 16.4551 158.296 16.7351 156.536 15.9851C156.158 15.6048 155.942 15.0918 155.936 14.5551C156.343 14.1908 156.844 13.9495 157.382 13.8592C157.921 13.7689 158.473 13.8334 158.976 14.0451Z" fill="#0BA7F2"/>
<path d="M156.586 15.9651C158.506 15.9651 160.586 15.2051 162.106 17.0451C162.126 17.1171 162.126 17.193 162.107 17.265C162.088 17.3371 162.049 17.4027 161.996 17.4551C161.706 17.9151 161.476 18.4551 160.886 18.6351C159.795 18.6751 158.703 18.6048 157.626 18.4251C157.024 17.7382 156.66 16.8756 156.586 15.9651Z" fill="#0196F0"/>
<path d="M35.4963 21.8554C34.7918 22.409 33.9468 22.7553 33.0563 22.8554C32.1363 20.6154 31.1463 18.3754 33.0563 16.1154L33.5663 15.9854C33.9299 16.0556 34.2547 16.2579 34.4781 16.5533C34.7015 16.8487 34.8077 17.2163 34.7763 17.5854C34.7952 19.0373 35.038 20.4775 35.4963 21.8554Z" fill="#047AE2"/>
<path d="M148.108 1.64971C148.494 1.48774 148.895 1.3252 149.314 1.3252C150.31 1.3252 151.257 2.17389 150.907 3.10547C150.672 3.73215 150.172 4.19934 149.116 4.3252C148.344 4.51839 147.597 4.63087 146.941 4.42963C145.874 4.10173 145.766 2.52941 146.797 2.10068C147.221 1.92425 147.691 1.82454 148.108 1.64971Z" fill="#02DDFA"/>
<path d="M11.5863 14.5357C12.8963 16.0557 12.7563 17.8357 12.5863 19.6357C12.5163 20.3857 12.2563 20.8357 11.4763 20.9257L10.4763 20.5857C9.88628 19.6857 10.3863 18.7357 10.3763 17.8057C10.4523 17.2958 10.4007 16.775 10.2262 16.2899C10.0517 15.8048 9.75967 15.3704 9.37628 15.0257C9.19143 14.8646 9.04167 14.6672 8.93628 14.4457C9.05628 13.7357 9.48628 13.7157 10.0363 13.9657C10.6059 13.9563 11.1585 14.1596 11.5863 14.5357Z" fill="#036DE1"/>
<path d="M20.5063 24.7751C23.5063 23.4451 23.5063 20.2251 20.5663 17.9551C22.6563 17.9551 23.7963 18.7751 23.5163 21.0051C23.4663 21.7275 23.4663 22.4526 23.5163 23.1751C23.5263 26.3651 23.5263 26.3651 20.5063 24.7751Z" fill="#088FE6"/>
<path d="M9.58631 14.5156C11.5863 15.0956 11.0363 16.7256 11.0363 18.0556C10.9522 18.9157 10.7745 19.7641 10.5063 20.5856C9.99631 20.4156 9.40631 20.4156 9.04631 19.9256C8.38631 18.0356 7.97631 16.1756 9.58631 14.5156Z" fill="#0268E0"/>
<path d="M13.5863 21.9349C14.4563 20.0649 14.1263 17.9849 14.5863 16.0449H15.0863C15.0201 16.7633 15.1624 17.4855 15.4963 18.1249C15.7516 18.4392 15.9406 18.802 16.052 19.1913C16.1634 19.5806 16.1948 19.9884 16.1443 20.3902C16.0939 20.792 15.9626 21.1794 15.7584 21.5291C15.5543 21.8788 15.2814 22.1835 14.9563 22.4249C14.4563 22.3249 13.8463 22.5649 13.5863 21.9349Z" fill="#0376E5"/>
<path d="M158.586 22.9252C157.916 24.3452 156.426 24.3552 155.186 24.7252C154.526 24.9252 154.446 24.2752 154.406 23.7752C154.316 22.5652 154.406 21.4452 156.016 21.2852C157.086 21.5352 158.526 21.2052 158.586 22.9252Z" fill="#0566E8"/>
<path d="M145.676 3.27539L149.156 4.27539C148.476 4.92539 147.786 5.57539 148.226 6.65539C147.154 6.84934 146.048 6.68781 145.076 6.19539C145.066 5.16539 144.886 4.12539 145.676 3.27539Z" fill="#04C6F7"/>
<path d="M156.586 9.07532C157.316 10.1143 157.805 11.3033 158.016 12.5553C157.622 12.8875 157.146 13.1074 156.637 13.1918C156.129 13.2763 155.607 13.2222 155.126 13.0353L154.536 11.1353C154.413 10.9096 154.337 10.661 154.313 10.4048C154.288 10.1486 154.317 9.89013 154.396 9.64532C154.681 9.36876 155.032 9.17083 155.416 9.0709C155.8 8.97098 156.203 8.97251 156.586 9.07532Z" fill="#03C3F7"/>
<path d="M46.4463 16.0351L47.4463 16.8251L43.4463 18.4451C42.0763 17.2151 42.5663 16.2751 43.9263 15.4451C45.0163 14.7751 45.6963 15.5651 46.4463 16.0351Z" fill="#055CDC"/>
<path d="M9.58629 14.5153C8.75629 16.2553 9.30629 18.1253 9.04629 19.9253C8.26099 19.8359 7.51981 19.5157 6.91629 19.0053C8.66629 17.5153 7.99629 16.2253 6.57629 15.0053C7.10629 13.4753 8.06629 13.9353 9.04629 14.5053L9.58629 14.5153Z" fill="#0463DE"/>
<path d="M33.0063 16.1553C31.8663 18.4053 33.4063 20.6453 33.0063 22.8953C32.8495 23.0067 32.6598 23.0623 32.4677 23.0533C32.2755 23.0442 32.0919 22.971 31.9463 22.8453L30.9463 16.9753L33.0063 16.1553Z" fill="#047FE4"/>
<path d="M156.586 9.07543C156.076 9.84543 155.266 9.55543 154.586 9.62543C154.156 9.52141 153.772 9.27743 153.495 8.93176C153.218 8.58608 153.064 8.15827 153.056 7.71543C153.056 5.25543 154.766 6.85543 155.696 6.61543C156.046 6.91218 156.313 7.29537 156.469 7.72692C156.625 8.15848 156.665 8.62338 156.586 9.07543Z" fill="#02DCF9"/>
<path d="M145.116 17.4552C147.846 16.5352 147.956 16.6052 148.116 19.3452C145.296 20.2352 144.976 20.0352 145.116 17.4552Z" fill="#0459E5"/>
<path d="M158.586 22.9255C158.066 21.9255 156.586 22.1855 156.016 21.2855C156.546 20.6655 157.086 20.0455 157.626 19.4355C158.706 19.6855 160.176 19.1955 160.536 20.8755C160.456 22.0555 159.466 22.4355 158.586 22.9255Z" fill="#0273E8"/>
<path d="M148.256 15.845C148.426 13.475 146.876 13.365 145.116 13.535V11.535C145.54 11.1637 146.083 10.959 146.646 10.959C147.209 10.959 147.753 11.1637 148.176 11.535C148.509 12.9497 148.536 14.4189 148.256 15.845Z" fill="#0192ED"/>
<path d="M160.586 20.875C159.956 19.725 158.146 20.875 157.676 19.435V18.435C158.193 18.1143 158.788 17.9443 159.396 17.9443C160.004 17.9443 160.6 18.1143 161.116 18.435C161.241 18.6016 161.315 18.8006 161.329 19.0082C161.343 19.2158 161.297 19.423 161.196 19.605C161.21 19.851 161.161 20.0964 161.055 20.3185C160.948 20.5405 160.787 20.732 160.586 20.875Z" fill="#0284EE"/>
<path d="M35.4963 21.855C34.3463 21.345 34.4963 20.315 34.4963 19.365C34.5818 18.769 34.5367 18.1616 34.364 17.5849C34.1914 17.0081 33.8953 16.4758 33.4963 16.025L35.9663 15.085C35.2351 16.0152 34.8914 17.1919 35.0069 18.3695C35.1225 19.547 35.6883 20.6345 36.5863 21.405C36.4629 21.5722 36.2961 21.7025 36.104 21.7818C35.9119 21.8612 35.7017 21.8864 35.4963 21.855Z" fill="#0575E3"/>
<path d="M95.8463 17.9452C96.4463 18.6952 97.1563 19.2152 98.1563 18.7952C99.1563 18.3752 98.7363 17.5552 98.7563 16.8852C98.7563 14.7052 98.7563 12.5352 98.8263 10.3652C99.5463 12.9652 98.9963 15.6152 99.1663 18.2452C99.2463 19.4852 98.3463 19.3752 97.5163 19.3852C96.5063 19.4052 95.4063 19.5452 95.8463 17.9452Z" fill="#060606"/>
<path d="M163.056 14.525C162.206 13.635 161.056 14.185 160.116 14.025C160.316 13.375 160.506 12.725 160.706 12.025C161.936 11.625 163.026 11.605 163.576 13.025C163.611 13.2981 163.582 13.5756 163.492 13.8358C163.402 14.0959 163.253 14.3318 163.056 14.525Z" fill="#0DB6F5"/>
<path d="M155.146 13.0354C156.038 12.5838 157.047 12.4163 158.036 12.5554C158.246 13.1054 159.036 13.2954 158.976 14.0454C158.056 14.6754 156.976 14.4754 155.976 14.5354C155.706 14.0354 155.426 13.5354 155.146 13.0354Z" fill="#07B2F4"/>
<path d="M9.0563 14.4951C8.2163 14.6051 7.2763 14.2051 6.5863 14.9951H5.5863C5.1563 12.7151 5.2463 12.6251 7.5863 12.9951L9.9063 13.4751C9.97824 13.6161 10.0256 13.7683 10.0463 13.9251L9.0563 14.4951Z" fill="#02A7FA"/>
<path d="M165.126 8.84568C164.516 6.84568 163.246 7.73568 162.126 8.15568C162.216 5.56568 164.406 6.15568 165.506 6.56568C166.756 7.01568 165.316 8.05568 165.126 8.84568Z" fill="#1AE0F9"/>
<path d="M23.0363 8.03516C23.0363 6.81516 22.9863 5.58516 23.0363 4.37516C23.1063 2.96516 22.5863 2.17516 21.0363 2.27516C22.7263 0.995161 23.6463 1.06516 23.4763 3.49516C23.3663 5.02516 23.4763 6.57516 23.4763 8.12516C23.3237 8.14667 23.1683 8.11489 23.0363 8.03516Z" fill="#14E6F7"/>
<path d="M26.0463 19.0059C26.1063 20.9259 26.1563 22.8559 26.2663 24.7859C26.2663 25.2859 26.8563 25.2559 27.2663 25.3659C26.6463 25.7859 25.7363 26.3659 25.7163 25.1159C25.6563 23.0859 25.0963 20.9859 26.0463 19.0059Z" fill="#0B92E7"/>
<path d="M145.046 10.1558C146.116 9.57578 147.216 8.44578 148.206 10.2558C148.243 10.3081 148.258 10.3725 148.249 10.4357C148.24 10.499 148.207 10.5562 148.156 10.5958C147.931 10.7911 147.666 10.9352 147.38 11.0182C147.094 11.1011 146.793 11.1209 146.498 11.0762C146.203 11.0315 145.922 10.9234 145.673 10.7593C145.424 10.5952 145.214 10.3791 145.056 10.1258L145.046 10.1558Z" fill="#01A3F2"/>
<path d="M145.056 10.125C146.028 10.5594 147.099 10.7218 148.156 10.595V11.595H145.096L145.056 10.125Z" fill="#039BEF"/>
<path d="M2.09629 16.4057L1.52629 16.5457C1.39149 16.5541 1.25687 16.5265 1.13629 16.4657V11.0857L1.58629 10.5557C2.49169 12.3705 2.67398 14.4615 2.09629 16.4057Z" fill="#13BEFB"/>
<path d="M163.586 13.0957C163.232 12.699 162.783 12.399 162.281 12.224C161.779 12.0491 161.24 12.0049 160.716 12.0957C160.806 11.9257 160.886 11.7557 160.976 11.5757C162.026 11.4157 163.056 12.0957 164.116 11.6257C164.137 11.8943 164.101 12.1643 164.009 12.4177C163.918 12.6712 163.774 12.9023 163.586 13.0957Z" fill="#0EC1F6"/>
<path d="M155.686 6.61559C154.826 7.02559 153.386 6.08559 153.046 7.71559C152.556 7.15559 152.206 6.53559 153.296 6.35559C154.098 6.14065 154.95 6.2334 155.686 6.61559Z" fill="#30E8F9"/>
<path d="M32.0063 22.8355L33.0663 22.8855C32.5071 23.3809 31.8087 23.6917 31.0663 23.7755C31.059 23.6501 31.0784 23.5247 31.1231 23.4073C31.1677 23.29 31.2367 23.1834 31.3255 23.0947C31.4143 23.0059 31.5208 22.9369 31.6382 22.8922C31.7555 22.8476 31.881 22.8282 32.0063 22.8355Z" fill="#0785E5"/>
<path d="M29.4863 9.64531C30.4863 9.64531 31.4863 9.44531 32.0063 10.6453C31.0887 10.5567 30.215 10.21 29.4863 9.64531Z" fill="#06E5FA"/>
<path d="M95.8363 11.585C96.1623 12.0018 96.3394 12.5158 96.3394 13.045C96.3394 13.5741 96.1623 14.0881 95.8363 14.505V11.585Z" fill="#060606"/>
<path d="M64.7063 13.1055C65.7963 13.8255 65.5663 14.6455 64.8963 15.4955C65.1505 14.7049 65.0822 13.8459 64.7063 13.1055Z" fill="#060606"/>
<path d="M153.666 9.12528C153.85 9.11003 154.035 9.14932 154.197 9.23824C154.358 9.32716 154.491 9.46177 154.576 9.62528C154.576 10.1253 154.576 10.6253 154.576 11.1353C154.075 10.5741 153.757 9.87259 153.666 9.12528Z" fill="#0DD1F7"/>
<path d="M68.4463 15.7756V12.9756C68.7297 13.3875 68.8814 13.8756 68.8814 14.3756C68.8814 14.8755 68.7297 15.3637 68.4463 15.7756Z" fill="#060606"/>
<path d="M161.136 19.5958L161.056 18.4258L161.986 17.4258C161.919 18.2161 161.624 18.9699 161.136 19.5958Z" fill="#0F92ED"/>
<path d="M55.8663 5.04492V7.76492C55.6256 7.3521 55.4988 6.88279 55.4988 6.40492C55.4988 5.92705 55.6256 5.45774 55.8663 5.04492Z" fill="#080808"/>
<path d="M90.3263 10.6657C90.3263 9.56572 90.9463 9.10572 92.0263 9.20572L90.3263 10.6657Z" fill="#060606"/>
<path d="M67.3863 5.16574L66.8863 3.38574C67.5863 3.84574 68.5863 4.21574 67.3863 5.16574Z" fill="#050505"/>
<path d="M90.7363 7.47578C89.4063 8.64578 89.8063 6.89578 89.3063 6.65578C90.1663 6.28578 90.1063 7.46578 90.7363 7.47578Z" fill="#060606"/>
<path d="M59.4163 5.0653C59.6563 4.3053 59.9963 3.7353 60.9263 4.2753L59.4163 5.0653Z" fill="#050505"/>
<path d="M119.646 4.0752C119.586 4.9652 120.256 6.0752 118.996 6.6252C119.726 5.9052 119.156 4.8552 119.646 4.0752Z" fill="#0E0E0E"/>
<path d="M2.0963 16.4055C1.1763 14.5155 1.8563 12.4955 1.5863 10.5555C1.58478 10.4945 1.59796 10.434 1.62474 10.3792C1.65152 10.3244 1.6911 10.2768 1.74014 10.2406C1.78918 10.2043 1.84624 10.1803 1.90649 10.1707C1.96675 10.1611 2.02842 10.1662 2.0863 10.1855C2.5863 11.5955 4.0863 11.2955 5.0863 11.7955C5.9263 12.2255 6.9863 12.2055 7.6163 13.0355C5.9263 12.6855 5.7263 13.7955 5.6163 15.0355C4.52468 15.6793 3.33594 16.142 2.0963 16.4055Z" fill="#02B4FD"/>
<path d="M17.0963 3.90527C17.2663 5.70527 15.9363 4.33527 15.4163 4.66527C15.8827 4.24186 16.4704 3.97596 17.0963 3.90527Z" fill="#03E4FB"/>
<path fill-rule="evenodd" clip-rule="evenodd" d="M141.086 17.2449V13.0849C141.086 12.5686 141.087 12.0523 141.088 11.5357C141.091 10.5012 141.093 9.4653 141.086 8.42493C141.086 6.61493 139.576 5.63493 138.086 6.70493C137.316 7.27493 137.096 7.30493 136.316 6.89493C135.042 6.17088 133.549 5.933 132.113 6.22534C130.677 6.51767 129.396 7.32042 128.506 8.48493C127.535 9.75308 126.997 11.2998 126.972 12.8968C126.947 14.4939 127.436 16.0568 128.366 17.3549C129.274 18.4989 130.545 19.2982 131.969 19.6202C133.393 19.9421 134.885 19.7674 136.196 19.1249C136.318 19.0685 136.426 19.0072 136.527 18.9496C136.963 18.7012 137.274 18.5241 138.086 19.1249C139.666 20.3449 141.086 19.2949 141.086 17.2449ZM135.436 9.51331C134.981 9.31884 134.491 9.21739 133.996 9.21494C132.998 9.2384 132.048 9.65088 131.349 10.3645C130.651 11.0781 130.259 12.0363 130.256 13.0349C130.257 13.5308 130.359 14.0213 130.556 14.4762C130.753 14.9311 131.041 15.3408 131.403 15.68C131.765 16.0192 132.192 16.2807 132.659 16.4484C133.125 16.6161 133.621 16.6864 134.116 16.6549C134.591 16.6605 135.062 16.5702 135.501 16.3896C135.94 16.209 136.337 15.9418 136.671 15.6038C137.004 15.2659 137.266 14.8642 137.44 14.4228C137.615 13.9815 137.698 13.5094 137.686 13.0349C137.701 12.5402 137.616 12.0476 137.438 11.586C137.259 11.1245 136.99 10.7033 136.646 10.3473C136.302 9.99136 135.891 9.70779 135.436 9.51331Z" fill="#020202"/>
<path fill-rule="evenodd" clip-rule="evenodd" d="M115.217 17.1857V13.0357L115.227 10.8457V8.64574C115.227 6.59574 113.797 5.56574 112.227 6.77574C111.441 7.3997 111.114 7.20941 110.678 6.95515C110.576 6.89564 110.468 6.83263 110.347 6.77574C109.072 6.15022 107.622 5.97678 106.236 6.28388C104.849 6.59098 103.608 7.36037 102.717 8.46574C101.729 9.75795 101.194 11.3393 101.194 12.9657C101.194 14.5922 101.729 16.1735 102.717 17.4657C103.624 18.5501 104.865 19.3025 106.246 19.6048C107.627 19.907 109.07 19.7421 110.347 19.1357C110.451 19.0897 110.546 19.0427 110.635 18.9984C111.127 18.7544 111.45 18.594 112.297 19.1357C114.047 20.2857 115.217 19.3557 115.217 17.1857ZM110.854 15.5318C111.516 14.8323 111.873 13.8985 111.847 12.9357C111.852 12.4432 111.759 11.9545 111.572 11.4988C111.385 11.043 111.109 10.6294 110.759 10.2825C110.409 9.93556 109.993 9.66238 109.536 9.47914C109.079 9.2959 108.589 9.20633 108.097 9.21573C107.604 9.2261 107.118 9.33778 106.669 9.54382C106.221 9.74986 105.82 10.0459 105.491 10.4135C105.162 10.7811 104.911 11.2124 104.756 11.6807C104.601 12.149 104.543 12.6443 104.587 13.1357C104.613 14.0985 105.021 15.0112 105.721 15.6732C106.42 16.3352 107.354 16.6922 108.317 16.6657C109.28 16.6392 110.192 16.2313 110.854 15.5318Z" fill="#030303"/>
<path fill-rule="evenodd" clip-rule="evenodd" d="M83.8893 15.7579C84.2416 14.9221 84.4175 14.0227 84.4061 13.1158C84.4559 12.2095 84.3179 11.3027 84.0009 10.4523C83.6838 9.60181 83.1945 8.82601 82.5636 8.17351C81.9327 7.52101 81.1738 7.00587 80.3345 6.66038C79.4952 6.31489 78.5935 6.14651 77.6861 6.16578C76.7746 6.11751 75.8626 6.25299 75.0044 6.56418C74.1463 6.87537 73.3595 7.35591 72.6907 7.97723C72.022 8.59856 71.485 9.348 71.1116 10.181C70.7383 11.014 70.5362 11.9135 70.5174 12.8262C70.4987 13.7388 70.6635 14.6459 71.0023 15.4936C71.3411 16.3412 71.8468 17.1121 72.4894 17.7604C73.1321 18.4087 73.8985 18.9212 74.7431 19.2674C75.5877 19.6136 76.4933 19.7865 77.4061 19.7758C78.3113 19.8323 79.2184 19.7013 80.0707 19.3911C80.923 19.0809 81.702 18.5981 82.3591 17.9729C83.0162 17.3478 83.5371 16.5937 83.8893 15.7579ZM80.8498 14.4766C81.0408 14.0446 81.1416 13.5781 81.146 13.1058C81.1552 12.6278 81.0701 12.1526 80.8957 11.7075C80.7212 11.2623 80.4608 10.8559 80.1293 10.5114C79.7978 10.1669 79.4017 9.89107 78.9636 9.69965C78.5255 9.50823 78.054 9.40498 77.576 9.39578C77.098 9.38659 76.6228 9.47164 76.1777 9.64608C75.7325 9.82051 75.3261 10.0809 74.9816 10.4124C74.6371 10.7439 74.3613 11.14 74.1698 11.5781C73.9784 12.0163 73.8752 12.4878 73.866 12.9658C73.8592 13.4373 73.9472 13.9054 74.1249 14.3423C74.3025 14.7791 74.5661 15.1758 74.9001 15.5088C75.234 15.8418 75.6314 16.1043 76.0688 16.2807C76.5061 16.4571 76.9744 16.5439 77.446 16.5358C77.9173 16.5671 78.39 16.5019 78.8352 16.3441C79.2804 16.1863 79.6888 15.9393 80.0352 15.6182C80.3816 15.2971 80.6588 14.9086 80.8498 14.4766Z" fill="#020202"/>
<path d="M40.4863 13.0551H41.4863C43.9463 12.7051 43.9663 12.7251 43.4863 15.0551L39.9963 14.0551C39.9963 13.9051 39.9963 13.7651 39.9963 13.6151C40.1363 13.4051 40.3063 13.2251 40.4863 13.0551Z" fill="#02A2FB"/>
<path d="M43.4763 14.995C43.3363 13.825 43.2163 12.645 41.4763 12.995C42.201 12.4432 43.0613 12.0977 43.9663 11.995C47.2963 11.805 45.8863 14.475 46.4463 15.995L43.9963 15.435L43.4763 14.995Z" fill="#01ADFB"/>
<path d="M59.3291 28.8955H58.5087L56.6511 26.0886V28.8955H55.8307V24.7994H56.6511L58.5087 27.6122V24.7994H59.3291V28.8955ZM63.1577 27.202C63.1577 27.3192 63.1499 27.4246 63.1343 27.5184H60.761C60.7805 27.7528 60.8626 27.9364 61.0071 28.0692C61.1517 28.2021 61.3294 28.2685 61.5404 28.2685C61.8451 28.2685 62.0619 28.1376 62.1908 27.8759H63.0757C62.9819 28.1884 62.8022 28.4462 62.5366 28.6494C62.2709 28.8486 61.9447 28.9482 61.558 28.9482C61.2454 28.9482 60.9641 28.8799 60.7141 28.7431C60.468 28.6025 60.2746 28.4052 60.134 28.1513C59.9972 27.8974 59.9289 27.6044 59.9289 27.2723C59.9289 26.9363 59.9972 26.6414 60.134 26.3874C60.2707 26.1335 60.4621 25.9382 60.7083 25.8014C60.9544 25.6647 61.2376 25.5963 61.558 25.5963C61.8666 25.5963 62.142 25.6627 62.3842 25.7956C62.6303 25.9284 62.8198 26.1179 62.9526 26.364C63.0894 26.6062 63.1577 26.8855 63.1577 27.202ZM62.308 26.9676C62.3041 26.7566 62.2279 26.5886 62.0795 26.4636C61.931 26.3347 61.7494 26.2702 61.5345 26.2702C61.3314 26.2702 61.1595 26.3327 61.0188 26.4577C60.8821 26.5789 60.7981 26.7488 60.7669 26.9676H62.308ZM63.5456 27.2606C63.5456 26.9324 63.61 26.6414 63.739 26.3874C63.8718 26.1335 64.0495 25.9382 64.2722 25.8014C64.4988 25.6647 64.7508 25.5963 65.0282 25.5963C65.2704 25.5963 65.4813 25.6452 65.661 25.7428C65.8447 25.8405 65.9912 25.9636 66.1005 26.112V25.6491H66.9268V28.8955H66.1005V28.4208C65.9951 28.5732 65.8486 28.7002 65.661 28.8017C65.4774 28.8994 65.2645 28.9482 65.0223 28.9482C64.7488 28.9482 64.4988 28.8779 64.2722 28.7373C64.0495 28.5966 63.8718 28.3994 63.739 28.1454C63.61 27.8876 63.5456 27.5926 63.5456 27.2606ZM66.1005 27.2723C66.1005 27.073 66.0615 26.9031 65.9833 26.7625C65.9052 26.6179 65.7997 26.5085 65.6669 26.4343C65.5341 26.3562 65.3915 26.3171 65.2391 26.3171C65.0868 26.3171 64.9461 26.3542 64.8172 26.4284C64.6883 26.5027 64.5828 26.6121 64.5008 26.7566C64.4226 26.8972 64.3836 27.0652 64.3836 27.2606C64.3836 27.4559 64.4226 27.6278 64.5008 27.7762C64.5828 27.9208 64.6883 28.0321 64.8172 28.1103C64.95 28.1884 65.0907 28.2275 65.2391 28.2275C65.3915 28.2275 65.5341 28.1904 65.6669 28.1161C65.7997 28.038 65.9052 27.9286 65.9833 27.788C66.0615 27.6434 66.1005 27.4715 66.1005 27.2723ZM68.5485 26.153C68.654 25.9811 68.7907 25.8464 68.9587 25.7487C69.1306 25.651 69.3259 25.6022 69.5447 25.6022V26.4636H69.3279C69.07 26.4636 68.8747 26.5242 68.7419 26.6453C68.6129 26.7664 68.5485 26.9773 68.5485 27.2781V28.8955H67.7281V25.6491H68.5485V26.153ZM71.3396 28.9482C71.0739 28.9482 70.8356 28.9014 70.6247 28.8076C70.4137 28.7099 70.2457 28.5791 70.1207 28.415C69.9996 28.2509 69.9332 28.0692 69.9215 27.87H70.7477C70.7633 27.995 70.8239 28.0985 70.9294 28.1806C71.0388 28.2626 71.1735 28.3036 71.3337 28.3036C71.49 28.3036 71.6111 28.2724 71.697 28.2099C71.7869 28.1474 71.8318 28.0673 71.8318 27.9696C71.8318 27.8641 71.7771 27.786 71.6677 27.7352C71.5623 27.6805 71.3923 27.6219 71.1579 27.5594C70.9157 27.5008 70.7165 27.4403 70.5602 27.3778C70.4078 27.3153 70.275 27.2195 70.1617 27.0906C70.0523 26.9617 69.9976 26.7879 69.9976 26.5691C69.9976 26.3894 70.0484 26.2253 70.15 26.0768C70.2555 25.9284 70.4039 25.8112 70.5954 25.7252C70.7907 25.6393 71.0192 25.5963 71.281 25.5963C71.6677 25.5963 71.9764 25.694 72.2069 25.8893C72.4373 26.0808 72.5643 26.3405 72.5878 26.6687H71.8025C71.7908 26.5398 71.7361 26.4382 71.6384 26.364C71.5447 26.2859 71.4177 26.2468 71.2575 26.2468C71.1091 26.2468 70.9938 26.2741 70.9118 26.3288C70.8337 26.3835 70.7946 26.4597 70.7946 26.5574C70.7946 26.6668 70.8493 26.7507 70.9587 26.8093C71.0681 26.864 71.238 26.9207 71.4685 26.9793C71.7029 27.0379 71.8963 27.0984 72.0486 27.1609C72.201 27.2235 72.3319 27.3211 72.4413 27.4539C72.5545 27.5829 72.6131 27.7548 72.6171 27.9696C72.6171 28.1571 72.5643 28.3251 72.4588 28.4736C72.3573 28.622 72.2088 28.7392 72.0135 28.8252C71.822 28.9072 71.5974 28.9482 71.3396 28.9482ZM75.1188 25.6022C75.3649 25.6022 75.5837 25.6569 75.7751 25.7663C75.9666 25.8717 76.115 26.03 76.2205 26.2409C76.3299 26.448 76.3846 26.698 76.3846 26.991V28.8955H75.5642V27.1023C75.5642 26.8445 75.4997 26.6472 75.3708 26.5105C75.2419 26.3698 75.0661 26.2995 74.8434 26.2995C74.6168 26.2995 74.4371 26.3698 74.3043 26.5105C74.1754 26.6472 74.1109 26.8445 74.1109 27.1023V28.8955H73.2905V24.5591H74.1109V26.0534C74.2164 25.9128 74.357 25.8034 74.5328 25.7252C74.7086 25.6432 74.9039 25.6022 75.1188 25.6022ZM78.6063 28.9482C78.2938 28.9482 78.0125 28.8799 77.7625 28.7431C77.5124 28.6025 77.3151 28.4052 77.1706 28.1513C77.03 27.8974 76.9596 27.6044 76.9596 27.2723C76.9596 26.9402 77.0319 26.6472 77.1765 26.3933C77.3249 26.1394 77.5261 25.944 77.78 25.8073C78.034 25.6666 78.3172 25.5963 78.6297 25.5963C78.9423 25.5963 79.2255 25.6666 79.4794 25.8073C79.7334 25.944 79.9326 26.1394 80.0772 26.3933C80.2256 26.6472 80.2998 26.9402 80.2998 27.2723C80.2998 27.6044 80.2237 27.8974 80.0713 28.1513C79.9228 28.4052 79.7197 28.6025 79.4619 28.7431C79.2079 28.8799 78.9227 28.9482 78.6063 28.9482ZM78.6063 28.2333C78.7547 28.2333 78.8934 28.1982 79.0224 28.1278C79.1552 28.0536 79.2607 27.9442 79.3388 27.7997C79.4169 27.6551 79.456 27.4793 79.456 27.2723C79.456 26.9637 79.374 26.7273 79.2099 26.5632C79.0497 26.3952 78.8524 26.3112 78.618 26.3112C78.3836 26.3112 78.1863 26.3952 78.0262 26.5632C77.8699 26.7273 77.7918 26.9637 77.7918 27.2723C77.7918 27.5809 77.8679 27.8192 78.0203 27.9872C78.1766 28.1513 78.3719 28.2333 78.6063 28.2333ZM81.722 26.153C81.8275 25.9811 81.9642 25.8464 82.1322 25.7487C82.3041 25.651 82.4995 25.6022 82.7182 25.6022V26.4636H82.5014C82.2436 26.4636 82.0482 26.5242 81.9154 26.6453C81.7865 26.7664 81.722 26.9773 81.722 27.2781V28.8955H80.9016V25.6491H81.722V26.153ZM86.2887 27.202C86.2887 27.3192 86.2809 27.4246 86.2653 27.5184H83.892C83.9115 27.7528 83.9935 27.9364 84.1381 28.0692C84.2826 28.2021 84.4604 28.2685 84.6713 28.2685C84.9761 28.2685 85.1929 28.1376 85.3218 27.8759H86.2067C86.1129 28.1884 85.9332 28.4462 85.6675 28.6494C85.4019 28.8486 85.0757 28.9482 84.6889 28.9482C84.3764 28.9482 84.0951 28.8799 83.8451 28.7431C83.599 28.6025 83.4056 28.4052 83.2649 28.1513C83.1282 27.8974 83.0598 27.6044 83.0598 27.2723C83.0598 26.9363 83.1282 26.6414 83.2649 26.3874C83.4017 26.1335 83.5931 25.9382 83.8392 25.8014C84.0853 25.6647 84.3686 25.5963 84.6889 25.5963C84.9976 25.5963 85.273 25.6627 85.5152 25.7956C85.7613 25.9284 85.9508 26.1179 86.0836 26.364C86.2203 26.6062 86.2887 26.8855 86.2887 27.202ZM85.439 26.9676C85.4351 26.7566 85.3589 26.5886 85.2105 26.4636C85.062 26.3347 84.8804 26.2702 84.6655 26.2702C84.4623 26.2702 84.2904 26.3327 84.1498 26.4577C84.0131 26.5789 83.9291 26.7488 83.8978 26.9676H85.439ZM89.6961 28.9365C89.4109 28.9365 89.1531 28.8877 88.9226 28.79C88.696 28.6924 88.5163 28.5517 88.3835 28.3681C88.2506 28.1845 88.1823 27.9677 88.1784 27.7176H89.0574C89.0691 27.8856 89.1277 28.0185 89.2332 28.1161C89.3426 28.2138 89.491 28.2626 89.6785 28.2626C89.87 28.2626 90.0204 28.2177 90.1298 28.1278C90.2391 28.0341 90.2938 27.913 90.2938 27.7645C90.2938 27.6434 90.2567 27.5438 90.1825 27.4657C90.1083 27.3875 90.0145 27.327 89.9012 27.284C89.7918 27.2371 89.6395 27.1863 89.4441 27.1316C89.1785 27.0535 88.9617 26.9773 88.7937 26.9031C88.6296 26.825 88.487 26.7097 88.3659 26.5574C88.2487 26.4011 88.1901 26.194 88.1901 25.9362C88.1901 25.694 88.2506 25.483 88.3718 25.3033C88.4929 25.1236 88.6628 24.9869 88.8816 24.8931C89.1004 24.7955 89.3504 24.7466 89.6317 24.7466C90.0536 24.7466 90.3954 24.8502 90.6572 25.0572C90.9228 25.2604 91.0693 25.5455 91.0967 25.9128H90.1942C90.1864 25.7721 90.1259 25.6569 90.0126 25.567C89.9032 25.4733 89.7567 25.4264 89.5731 25.4264C89.4129 25.4264 89.284 25.4674 89.1863 25.5494C89.0925 25.6315 89.0457 25.7506 89.0457 25.9069C89.0457 26.0163 89.0808 26.1081 89.1511 26.1823C89.2254 26.2526 89.3152 26.3112 89.4207 26.3581C89.5301 26.4011 89.6824 26.4519 89.8778 26.5105C90.1434 26.5886 90.3603 26.6668 90.5282 26.7449C90.6962 26.823 90.8408 26.9402 90.9619 27.0965C91.083 27.2528 91.1435 27.4579 91.1435 27.7118C91.1435 27.9306 91.0869 28.1337 90.9736 28.3212C90.8603 28.5087 90.6943 28.6592 90.4755 28.7724C90.2567 28.8818 89.9969 28.9365 89.6961 28.9365ZM93.2964 28.9482C92.9838 28.9482 92.7025 28.8799 92.4525 28.7431C92.2025 28.6025 92.0052 28.4052 91.8607 28.1513C91.72 27.8974 91.6497 27.6044 91.6497 27.2723C91.6497 26.9402 91.722 26.6472 91.8665 26.3933C92.015 26.1394 92.2162 25.944 92.4701 25.8073C92.724 25.6666 93.0073 25.5963 93.3198 25.5963C93.6323 25.5963 93.9156 25.6666 94.1695 25.8073C94.4234 25.944 94.6227 26.1394 94.7672 26.3933C94.9157 26.6472 94.9899 26.9402 94.9899 27.2723C94.9899 27.6044 94.9137 27.8974 94.7614 28.1513C94.6129 28.4052 94.4098 28.6025 94.1519 28.7431C93.898 28.8799 93.6128 28.9482 93.2964 28.9482ZM93.2964 28.2333C93.4448 28.2333 93.5835 28.1982 93.7124 28.1278C93.8452 28.0536 93.9507 27.9442 94.0289 27.7997C94.107 27.6551 94.1461 27.4793 94.1461 27.2723C94.1461 26.9637 94.064 26.7273 93.8999 26.5632C93.7398 26.3952 93.5425 26.3112 93.3081 26.3112C93.0737 26.3112 92.8764 26.3952 92.7162 26.5632C92.5599 26.7273 92.4818 26.9637 92.4818 27.2723C92.4818 27.5809 92.558 27.8192 92.7104 27.9872C92.8666 28.1513 93.062 28.2333 93.2964 28.2333ZM97.0801 26.323H96.5117V28.8955H95.6796V26.323H95.3104V25.6491H95.6796V25.485C95.6796 25.0865 95.7929 24.7935 96.0195 24.606C96.2461 24.4185 96.5879 24.3306 97.045 24.3423V25.0338C96.8457 25.0299 96.707 25.0631 96.6289 25.1334C96.5508 25.2037 96.5117 25.3307 96.5117 25.5143V25.6491H97.0801V26.323ZM98.567 26.323V27.8934C98.567 28.0028 98.5924 28.0829 98.6431 28.1337C98.6978 28.1806 98.7877 28.204 98.9127 28.204H99.2936V28.8955H98.7779C98.0864 28.8955 97.7407 28.5595 97.7407 27.8876V26.323H97.3539V25.6491H97.7407V24.8462H98.567V25.6491H99.2936V26.323H98.567ZM104.384 25.6491L103.435 28.8955H102.55L101.958 26.6277L101.366 28.8955H100.476L99.5204 25.6491H100.352L100.927 28.122L101.548 25.6491H102.415L103.025 28.1161L103.599 25.6491H104.384ZM104.617 27.2606C104.617 26.9324 104.682 26.6414 104.81 26.3874C104.943 26.1335 105.121 25.9382 105.344 25.8014C105.57 25.6647 105.822 25.5963 106.1 25.5963C106.342 25.5963 106.553 25.6452 106.733 25.7428C106.916 25.8405 107.063 25.9636 107.172 26.112V25.6491H107.998V28.8955H107.172V28.4208C107.067 28.5732 106.92 28.7002 106.733 28.8017C106.549 28.8994 106.336 28.9482 106.094 28.9482C105.82 28.9482 105.57 28.8779 105.344 28.7373C105.121 28.5966 104.943 28.3994 104.81 28.1454C104.682 27.8876 104.617 27.5926 104.617 27.2606ZM107.172 27.2723C107.172 27.073 107.133 26.9031 107.055 26.7625C106.977 26.6179 106.871 26.5085 106.738 26.4343C106.606 26.3562 106.463 26.3171 106.311 26.3171C106.158 26.3171 106.018 26.3542 105.889 26.4284C105.76 26.5027 105.654 26.6121 105.572 26.7566C105.494 26.8972 105.455 27.0652 105.455 27.2606C105.455 27.4559 105.494 27.6278 105.572 27.7762C105.654 27.9208 105.76 28.0321 105.889 28.1103C106.022 28.1884 106.162 28.2275 106.311 28.2275C106.463 28.2275 106.606 28.1904 106.738 28.1161C106.871 28.038 106.977 27.9286 107.055 27.788C107.133 27.6434 107.172 27.4715 107.172 27.2723ZM109.62 26.153C109.725 25.9811 109.862 25.8464 110.03 25.7487C110.202 25.651 110.397 25.6022 110.616 25.6022V26.4636H110.399C110.142 26.4636 109.946 26.5242 109.813 26.6453C109.684 26.7664 109.62 26.9773 109.62 27.2781V28.8955H108.8V25.6491H109.62V26.153ZM114.187 27.202C114.187 27.3192 114.179 27.4246 114.163 27.5184H111.79C111.809 27.7528 111.891 27.9364 112.036 28.0692C112.181 28.2021 112.358 28.2685 112.569 28.2685C112.874 28.2685 113.091 28.1376 113.22 27.8759H114.105C114.011 28.1884 113.831 28.4462 113.565 28.6494C113.3 28.8486 112.974 28.9482 112.587 28.9482C112.274 28.9482 111.993 28.8799 111.743 28.7431C111.497 28.6025 111.304 28.4052 111.163 28.1513C111.026 27.8974 110.958 27.6044 110.958 27.2723C110.958 26.9363 111.026 26.6414 111.163 26.3874C111.3 26.1335 111.491 25.9382 111.737 25.8014C111.983 25.6647 112.267 25.5963 112.587 25.5963C112.896 25.5963 113.171 25.6627 113.413 25.7956C113.659 25.9284 113.849 26.1179 113.982 26.364C114.118 26.6062 114.187 26.8855 114.187 27.202ZM113.337 26.9676C113.333 26.7566 113.257 26.5886 113.108 26.4636C112.96 26.3347 112.778 26.2702 112.563 26.2702C112.36 26.2702 112.188 26.3327 112.048 26.4577C111.911 26.5789 111.827 26.7488 111.796 26.9676H113.337ZM117.612 24.8052C118.041 24.8052 118.418 24.8892 118.743 25.0572C119.071 25.2252 119.323 25.4655 119.499 25.778C119.678 26.0866 119.768 26.446 119.768 26.8562C119.768 27.2664 119.678 27.6258 119.499 27.9345C119.323 28.2392 119.071 28.4755 118.743 28.6435C118.418 28.8115 118.041 28.8955 117.612 28.8955H116.182V24.8052H117.612ZM117.582 28.1982C118.012 28.1982 118.344 28.081 118.579 27.8466C118.813 27.6122 118.93 27.2821 118.93 26.8562C118.93 26.4304 118.813 26.0983 118.579 25.86C118.344 25.6178 118.012 25.4967 117.582 25.4967H117.002V28.1982H117.582ZM121.824 28.9482C121.511 28.9482 121.23 28.8799 120.98 28.7431C120.73 28.6025 120.533 28.4052 120.388 28.1513C120.247 27.8974 120.177 27.6044 120.177 27.2723C120.177 26.9402 120.249 26.6472 120.394 26.3933C120.542 26.1394 120.744 25.944 120.998 25.8073C121.251 25.6666 121.535 25.5963 121.847 25.5963C122.16 25.5963 122.443 25.6666 122.697 25.8073C122.951 25.944 123.15 26.1394 123.295 26.3933C123.443 26.6472 123.517 26.9402 123.517 27.2723C123.517 27.6044 123.441 27.8974 123.289 28.1513C123.14 28.4052 122.937 28.6025 122.679 28.7431C122.425 28.8799 122.14 28.9482 121.824 28.9482ZM121.824 28.2333C121.972 28.2333 122.111 28.1982 122.24 28.1278C122.373 28.0536 122.478 27.9442 122.556 27.7997C122.634 27.6551 122.673 27.4793 122.673 27.2723C122.673 26.9637 122.591 26.7273 122.427 26.5632C122.267 26.3952 122.07 26.3112 121.836 26.3112C121.601 26.3112 121.404 26.3952 121.244 26.5632C121.087 26.7273 121.009 26.9637 121.009 27.2723C121.009 27.5809 121.085 27.8192 121.238 27.9872C121.394 28.1513 121.589 28.2333 121.824 28.2333ZM125.918 25.6022C126.305 25.6022 126.617 25.7252 126.856 25.9714C127.094 26.2136 127.213 26.5535 127.213 26.991V28.8955H126.393V27.1023C126.393 26.8445 126.328 26.6472 126.199 26.5105C126.071 26.3698 125.895 26.2995 125.672 26.2995C125.445 26.2995 125.266 26.3698 125.133 26.5105C125.004 26.6472 124.94 26.8445 124.94 27.1023V28.8955H124.119V25.6491H124.94V26.0534C125.049 25.9128 125.188 25.8034 125.356 25.7252C125.527 25.6432 125.715 25.6022 125.918 25.6022ZM131.011 27.202C131.011 27.3192 131.003 27.4246 130.988 27.5184H128.615C128.634 27.7528 128.716 27.9364 128.861 28.0692C129.005 28.2021 129.183 28.2685 129.394 28.2685C129.699 28.2685 129.915 28.1376 130.044 27.8759H130.929C130.835 28.1884 130.656 28.4462 130.39 28.6494C130.124 28.8486 129.798 28.9482 129.411 28.9482C129.099 28.9482 128.818 28.8799 128.568 28.7431C128.322 28.6025 128.128 28.4052 127.988 28.1513C127.851 27.8974 127.782 27.6044 127.782 27.2723C127.782 26.9363 127.851 26.6414 127.988 26.3874C128.124 26.1335 128.316 25.9382 128.562 25.8014C128.808 25.6647 129.091 25.5963 129.411 25.5963C129.72 25.5963 129.996 25.6627 130.238 25.7956C130.484 25.9284 130.673 26.1179 130.806 26.364C130.943 26.6062 131.011 26.8855 131.011 27.202ZM130.162 26.9676C130.158 26.7566 130.081 26.5886 129.933 26.4636C129.785 26.3347 129.603 26.2702 129.388 26.2702C129.185 26.2702 129.013 26.3327 128.872 26.4577C128.736 26.5789 128.652 26.7488 128.62 26.9676H130.162ZM135.116 28.8955L134.214 27.3016H133.827V28.8955H133.006V24.8052H134.542C134.858 24.8052 135.128 24.8619 135.35 24.9752C135.573 25.0846 135.739 25.235 135.849 25.4264C135.962 25.6139 136.018 25.8249 136.018 26.0593C136.018 26.3288 135.94 26.573 135.784 26.7918C135.628 27.0066 135.395 27.1551 135.087 27.2371L136.065 28.8955H135.116ZM133.827 26.6863H134.512C134.735 26.6863 134.901 26.6335 135.011 26.5281C135.12 26.4187 135.175 26.2683 135.175 26.0768C135.175 25.8893 135.12 25.7448 135.011 25.6432C134.901 25.5377 134.735 25.485 134.512 25.485H133.827V26.6863ZM137.177 25.2623C137.032 25.2623 136.911 25.2174 136.813 25.1275C136.719 25.0338 136.673 24.9185 136.673 24.7818C136.673 24.6451 136.719 24.5318 136.813 24.4419C136.911 24.3481 137.032 24.3013 137.177 24.3013C137.321 24.3013 137.44 24.3481 137.534 24.4419C137.632 24.5318 137.681 24.6451 137.681 24.7818C137.681 24.9185 137.632 25.0338 137.534 25.1275C137.44 25.2174 137.321 25.2623 137.177 25.2623ZM137.581 25.6491V28.8955H136.76V25.6491H137.581ZM139.663 25.5963C139.905 25.5963 140.118 25.6452 140.302 25.7428C140.485 25.8366 140.63 25.9596 140.735 26.112V25.6491H141.562V28.9189C141.562 29.2198 141.501 29.4874 141.38 29.7218C141.259 29.9601 141.077 30.1476 140.835 30.2843C140.593 30.425 140.3 30.4953 139.956 30.4953C139.495 30.4953 139.116 30.3879 138.819 30.173C138.526 29.9581 138.36 29.6651 138.321 29.294H139.136C139.179 29.4424 139.27 29.5596 139.411 29.6456C139.556 29.7354 139.729 29.7804 139.933 29.7804C140.171 29.7804 140.364 29.7081 140.513 29.5635C140.661 29.4229 140.735 29.208 140.735 28.9189V28.415C140.63 28.5673 140.483 28.6943 140.296 28.7959C140.112 28.8975 139.901 28.9482 139.663 28.9482C139.39 28.9482 139.14 28.8779 138.913 28.7373C138.686 28.5966 138.507 28.3994 138.374 28.1454C138.245 27.8876 138.18 27.5926 138.18 27.2606C138.18 26.9324 138.245 26.6414 138.374 26.3874C138.507 26.1335 138.684 25.9382 138.907 25.8014C139.134 25.6647 139.386 25.5963 139.663 25.5963ZM140.735 27.2723C140.735 27.073 140.696 26.9031 140.618 26.7625C140.54 26.6179 140.435 26.5085 140.302 26.4343C140.169 26.3562 140.026 26.3171 139.874 26.3171C139.722 26.3171 139.581 26.3542 139.452 26.4284C139.323 26.5027 139.218 26.6121 139.136 26.7566C139.058 26.8972 139.018 27.0652 139.018 27.2606C139.018 27.4559 139.058 27.6278 139.136 27.7762C139.218 27.9208 139.323 28.0321 139.452 28.1103C139.585 28.1884 139.726 28.2275 139.874 28.2275C140.026 28.2275 140.169 28.1904 140.302 28.1161C140.435 28.038 140.54 27.9286 140.618 27.788C140.696 27.6434 140.735 27.4715 140.735 27.2723ZM144.191 25.6022C144.437 25.6022 144.656 25.6569 144.848 25.7663C145.039 25.8717 145.187 26.03 145.293 26.2409C145.402 26.448 145.457 26.698 145.457 26.991V28.8955H144.637V27.1023C144.637 26.8445 144.572 26.6472 144.443 26.5105C144.314 26.3698 144.139 26.2995 143.916 26.2995C143.689 26.2995 143.51 26.3698 143.377 26.5105C143.248 26.6472 143.183 26.8445 143.183 27.1023V28.8955H142.363V24.5591H143.183V26.0534C143.289 25.9128 143.429 25.8034 143.605 25.7252C143.781 25.6432 143.976 25.6022 144.191 25.6022ZM147.192 26.323V27.8934C147.192 28.0028 147.218 28.0829 147.269 28.1337C147.323 28.1806 147.413 28.204 147.538 28.204H147.919V28.8955H147.403C146.712 28.8955 146.366 28.5595 146.366 27.8876V26.323H145.979V25.6491H146.366V24.8462H147.192V25.6491H147.919V26.323H147.192ZM148.872 28.9365C148.724 28.9365 148.601 28.8916 148.503 28.8017C148.409 28.708 148.363 28.5927 148.363 28.456C148.363 28.3193 148.409 28.206 148.503 28.1161C148.601 28.0224 148.724 27.9755 148.872 27.9755C149.017 27.9755 149.136 28.0224 149.23 28.1161C149.324 28.206 149.371 28.3193 149.371 28.456C149.371 28.5927 149.324 28.708 149.23 28.8017C149.136 28.8916 149.017 28.9365 148.872 28.9365Z" fill="black"/>
</g>
<defs>
<clipPath id="clip0_1740_2032">
<rect width="165.41" height="30.45" fill="white" transform="translate(0.586304 0.775391)"/>
</clipPath>
</defs>
</svg>
