<svg width="125" height="36" viewBox="0 0 125 36" fill="none" xmlns="http://www.w3.org/2000/svg">
<g clip-path="url(#clip0_1740_1994)">
<path d="M124.444 22.6699C123.054 25.7799 121.644 28.8699 120.274 31.9899C119.854 32.9399 119.454 33.7699 118.164 33.5699C117.614 33.4799 117.024 33.3499 117.474 32.7399C119.634 29.8399 117.374 27.5599 116.474 25.0799C116.154 24.1699 115.474 23.3799 115.474 22.3399C119.404 21.2199 118.334 25.1999 120.004 26.5899C121.424 25.0999 120.644 21.3099 124.404 22.1799L124.444 22.6699Z" fill="#264767"/>
<path d="M16.5037 1.42039C17.5037 1.53039 18.6537 -0.429608 19.0837 1.06039C19.5137 2.55039 20.2937 4.68039 18.0837 5.88039C14.9137 7.63039 11.7237 9.35039 8.0837 11.3404C10.8323 12.9202 13.6667 14.3457 16.5737 15.6104C19.1637 16.6104 19.5237 18.2604 19.3337 20.5504C19.2437 21.7504 18.8737 21.9804 17.8137 21.4404C16.0037 20.5104 14.1637 19.6404 12.0537 18.6204C12.0537 20.6204 12.1037 22.3604 12.0537 24.0504C12.0537 25.0504 12.5837 25.4804 13.3837 25.8604C15.9937 27.1004 18.6037 28.3404 21.1537 29.6804C21.5735 29.9376 22.0563 30.0738 22.5487 30.0738C23.0411 30.0738 23.5239 29.9376 23.9437 29.6804C25.3937 28.9004 26.9437 28.2204 28.3837 27.5004C33.5937 24.9704 33.5937 24.9704 32.7237 18.7604C30.9137 19.6504 29.1437 20.4904 27.4037 21.3904C26.2837 21.9804 25.8537 21.8304 25.7237 20.4704C25.5237 18.2204 25.9737 16.6704 28.3937 15.7204C31.2037 14.6204 33.8037 13.0304 36.9637 11.4204L27.5037 6.25039C26.0037 5.40039 25.0037 2.51039 25.8037 1.00039C26.4637 -0.229608 27.2037 1.25039 27.9137 1.00039C32.3337 3.39039 36.6937 5.89039 41.2037 8.11039C42.8937 8.95039 42.7537 10.1104 42.8237 11.5104C42.8937 12.9104 42.6637 13.9704 41.1637 14.3404C37.7537 15.2004 36.8437 17.5404 37.4637 20.6204C38.6337 26.3604 36.2437 29.6904 30.6937 31.4304C27.8137 32.3404 25.1637 34.9304 22.3937 34.9604C19.6237 34.9904 17.1537 32.3304 14.3937 31.4704C8.6937 29.7304 6.2637 26.3404 7.5137 20.4704C8.1937 17.2904 7.0237 15.1504 3.7437 14.2504C3.14067 14.1448 2.60191 13.8099 2.24027 13.3159C1.87864 12.8219 1.72219 12.2072 1.8037 11.6004C1.8637 10.1204 1.9937 9.07039 3.5937 8.28039C7.9537 6.12039 12.1837 3.72039 16.5037 1.42039Z" fill="#FE9F00"/>
<path d="M66.1737 10.75C65.8937 9.62996 66.7737 8.11996 65.1737 6.88996C64.8937 6.66996 66.1737 4.27996 66.9937 3.07996C67.3624 2.62501 67.8561 2.28791 68.4141 2.11021C68.9721 1.93252 69.5698 1.922 70.1337 2.07996C70.2954 2.10934 70.4401 2.19892 70.5384 2.33066C70.6367 2.46241 70.6815 2.62652 70.6637 2.78996C70.6637 3.30996 70.6637 3.78996 69.9837 3.90996C69.1137 4.03996 68.6037 4.45996 68.7037 5.36996C68.7637 5.91996 69.2637 5.93996 69.7037 5.86996C70.5837 5.70996 71.7037 6.45996 72.2637 5.08996C72.5237 4.36996 72.4437 3.30996 73.6237 3.35996C74.9637 3.42996 74.1737 4.96996 74.6237 5.17996C76.8037 6.24996 77.2437 6.99996 74.7037 8.27995C74.4737 8.39995 73.1237 11.72 75.9137 12.58C76.1493 12.6594 76.3495 12.819 76.4793 13.0311C76.609 13.2431 76.6602 13.494 76.6237 13.74C76.5337 14.23 76.0637 14.26 75.6837 14.38C73.5937 15.08 72.1337 14.08 72.0137 11.87C71.9487 10.9711 71.9487 10.0688 72.0137 9.16996C72.1137 7.89996 71.6137 7.48996 70.3137 7.45996C69.0137 7.42996 68.6337 8.02996 68.7137 9.21996C68.7937 10.41 68.7137 11.67 68.7137 12.9C68.7137 13.82 68.6537 14.43 67.4337 14.43C66.2137 14.43 66.0737 13.85 66.1337 12.91C66.2037 12.26 66.1737 11.6 66.1737 10.75Z" fill="#264667"/>
<path d="M57.2437 23.1104C57.2437 23.9304 57.2437 24.7504 57.2437 25.5704C57.1637 29.0004 55.1737 31.0004 51.8737 31.0004C48.5737 31.0004 46.8037 29.0004 46.7537 25.6604C46.7537 23.8504 46.7537 22.0504 46.7537 20.2504C46.7537 19.3504 46.7537 18.7204 48.0137 18.6904C49.2737 18.6604 49.4637 19.3104 49.4337 20.3404C49.4337 22.1404 49.3537 23.9504 49.4337 25.7504C49.5337 27.3404 50.1337 28.7504 52.1137 28.5804C54.0937 28.4104 54.3537 27.1604 54.3537 25.6304C54.3537 23.8304 54.4237 22.0204 54.3537 20.2204C54.2937 19.0004 54.7837 18.7004 55.9437 18.6904C57.1037 18.6804 57.3337 19.2004 57.2737 20.1804C57.2137 21.1604 57.2737 22.1804 57.2737 23.1304L57.2437 23.1104Z" fill="#254666"/>
<path d="M83.8937 8.83031C83.3937 10.4903 82.9837 11.7303 82.6637 12.9903C82.4337 13.8803 82.0837 14.4003 81.0237 14.4403C79.9637 14.4803 79.5637 14.0003 79.3037 13.1003C78.6037 10.7703 77.8837 8.45031 77.1237 5.97031C81.6037 5.41031 79.5237 9.39031 81.1237 10.8603C82.0637 9.96031 81.9737 8.52031 82.3937 7.30031C82.6737 6.49031 82.8837 5.82031 84.0037 5.82031C85.1237 5.82031 85.3337 6.59031 85.5637 7.37031C85.9337 8.58031 86.2837 9.81031 86.8037 11.6203C87.2937 9.62031 87.6637 8.32031 87.9237 6.99031C88.1837 5.66031 89.0437 5.66031 89.9237 5.88031C91.2937 6.20031 90.3137 7.04031 90.1637 7.60031C89.6937 9.33031 89.1637 11.0403 88.5937 12.7503C88.3237 13.6103 88.1937 14.4203 86.8937 14.4303C85.5937 14.4403 85.3037 13.6203 85.0537 12.6203C84.8037 11.6203 84.3937 10.4403 83.8937 8.83031Z" fill="#264667"/>
<path d="M49.9337 14.6101C48.8881 14.5607 47.8651 14.288 46.9337 13.8101C46.3437 13.4801 45.7237 13.1701 46.2437 12.3201C46.6737 11.6301 47.1237 11.1601 48.0337 11.6801C48.6099 12.0003 49.235 12.2232 49.8837 12.3401C50.0616 12.3994 50.2495 12.4229 50.4365 12.4092C50.6235 12.3955 50.806 12.3448 50.9733 12.2602C51.1407 12.1756 51.2896 12.0587 51.4116 11.9162C51.5335 11.7738 51.626 11.6085 51.6837 11.4301C51.9637 10.5501 51.4637 10.0301 50.6837 9.74013C50.2137 9.58013 49.7437 9.44013 49.2637 9.30013C47.1437 8.68013 45.9437 7.36013 46.4137 5.12013C46.8837 2.88013 48.6137 2.20013 50.6837 2.12013C51.1806 2.11902 51.673 2.2141 52.1337 2.40013C52.9137 2.69013 54.1837 2.68013 53.9437 3.91013C53.7037 5.14013 52.7337 5.07013 51.6437 4.62013C50.7437 4.25013 49.4537 4.04013 49.0837 5.26013C48.7137 6.48013 50.0437 6.73013 50.9637 7.00013C53.0637 7.69013 54.8337 8.63013 54.3837 11.3101C54.0337 13.3601 52.3837 14.6201 49.9337 14.6101Z" fill="#264767"/>
<path d="M58.8937 26.3899C58.8937 25.6599 58.8937 24.9199 58.8937 24.1899C58.7637 22.5099 59.2337 21.4999 61.0637 22.4999C61.8937 22.9499 62.2637 22.3199 62.8437 22.1999C65.2437 21.6899 66.6837 22.7399 66.8437 25.1999C66.9137 26.5899 66.8437 27.9799 66.8437 29.3699C66.8437 30.2899 66.7437 30.9399 65.5337 30.8899C64.3237 30.8399 64.3137 30.0899 64.3237 29.2199C64.3237 27.9999 64.3237 26.7699 64.3237 25.5499C64.3237 24.7499 64.0537 24.0699 63.0737 24.0799C62.8682 24.0496 62.6585 24.0656 62.46 24.127C62.2615 24.1883 62.0793 24.2933 61.9268 24.4344C61.7743 24.5754 61.6553 24.7488 61.5786 24.9418C61.5019 25.1349 61.4695 25.3427 61.4837 25.5499C61.4837 26.7799 61.4837 27.9999 61.4837 29.2299C61.4837 30.0399 61.6137 30.8899 60.3037 30.8899C59.1437 30.8899 58.9437 30.2699 58.9737 29.3299C59.0037 28.3899 58.9037 27.3699 58.8937 26.3899Z" fill="#294969"/>
<path d="M77.0238 27.4205C77.4338 26.1205 77.8838 24.8205 78.2538 23.4905C78.2896 23.2434 78.3814 23.0078 78.5221 22.8015C78.6628 22.5953 78.8488 22.4239 79.0658 22.3005C79.2829 22.177 79.5252 22.1047 79.7744 22.0891C80.0236 22.0735 80.273 22.1151 80.5038 22.2105C81.8938 22.6605 80.7238 23.5505 80.5638 24.1005C80.0138 25.8805 79.2538 27.6005 78.5638 29.3505C78.2338 30.2105 77.8938 30.9505 76.6938 30.9005C75.4938 30.8505 75.3338 30.2605 75.0338 29.4305C74.3038 27.4305 73.4838 25.4905 72.7238 23.5205C72.5738 23.1505 72.4838 22.7605 72.3438 22.2905C76.8637 21.5005 74.9238 26.0005 77.0238 27.4205Z" fill="#284869"/>
<path d="M101.144 22.0707C101.544 22.0893 101.94 22.1565 102.324 22.2707C102.834 22.4407 103.594 22.6007 103.454 23.3407C103.314 24.0807 102.714 24.3407 101.934 24.1407C101.154 23.9407 100.094 23.3807 99.8737 24.5307C99.7237 25.3007 100.874 25.4207 101.564 25.6607C102.814 26.0907 103.824 26.7507 103.714 28.2707C103.68 28.8963 103.432 29.4911 103.011 29.9554C102.59 30.4197 102.023 30.7252 101.404 30.8207C100.731 31.0448 100.012 31.0972 99.3136 30.9732C98.6151 30.8492 97.9586 30.5528 97.4037 30.1107C96.6837 29.4807 97.5037 28.9007 98.0737 28.7207C98.4637 28.6007 98.9937 28.9707 99.4737 29.0407C99.9537 29.1107 100.914 29.4407 101.154 28.5707C101.344 27.8507 100.614 27.6807 100.064 27.5107L99.5937 27.3407C98.1237 26.8707 96.9937 26.0607 97.2937 24.3407C97.5937 22.6207 98.9537 22.0007 101.144 22.0707Z" fill="#284868"/>
<path d="M112.874 31.0005C111.114 30.9105 110.404 30.0005 110.184 28.3405C109.964 26.6805 111.074 24.7205 109.084 23.4205C108.844 23.2605 111.534 19.5505 111.704 19.7205C112.824 20.8405 113.874 22.0405 114.904 23.2405C114.904 23.2405 114.684 23.6305 114.514 23.7505C112.104 25.3905 112.044 27.3705 114.334 29.0905C114.624 29.3105 114.994 29.8405 114.914 30.0905C114.504 31.0005 113.594 30.8305 112.874 31.0005Z" fill="#2B4A6A"/>
<path d="M91.1137 26.5103C91.1137 25.8603 91.1137 25.2003 91.1137 24.5103C91.1137 22.9503 90.7937 20.9403 93.4537 22.7203C94.2037 23.2203 94.4537 22.0703 95.1337 22.1103C95.8137 22.1503 96.3837 21.7903 96.5337 22.6303C96.6337 23.1603 96.7437 24.1003 96.1837 24.1703C92.4337 24.6103 93.8037 27.4403 93.6937 29.4303C93.6037 31.2703 92.5037 31.0003 91.5037 30.7403C90.8737 30.5603 91.1137 29.7403 91.0937 29.2003C91.0937 28.3003 91.0937 27.4103 91.0937 26.5103H91.1137Z" fill="#284868"/>
<path d="M100.424 10.0003C100.424 9.19027 100.424 8.37027 100.424 7.55027C100.314 5.92027 101.164 5.28027 102.424 6.22027C103.424 6.99027 103.654 5.90027 104.254 5.81027C104.854 5.72027 105.484 5.49027 105.784 6.11027C106.084 6.73027 106.034 7.79027 105.474 7.85027C101.774 8.22027 103.294 10.9803 102.994 12.8503C102.884 13.5603 103.114 14.3603 101.994 14.4003C101.054 14.4003 100.374 14.3403 100.444 13.1403C100.514 11.9403 100.424 11.0003 100.424 10.0003Z" fill="#284869"/>
<path d="M68.6837 26.5003C68.6837 25.4503 68.6837 24.3903 68.6837 23.3403C68.6837 22.2903 69.1337 22.1603 70.0237 22.1403C70.9137 22.1203 71.2837 22.5303 71.2637 23.4403C71.2637 25.4403 71.2637 27.4403 71.2637 29.5203C71.2637 30.3803 71.0837 30.8703 70.0537 30.8903C69.0237 30.9103 68.6437 30.4003 68.6837 29.4203C68.7237 28.4403 68.6837 27.4203 68.6837 26.5003Z" fill="#274768"/>
<path d="M107.684 26.4903C107.684 27.5503 107.684 28.6203 107.684 29.6803C107.684 30.4603 107.424 30.9103 106.534 30.8903C105.644 30.8703 105.074 30.7303 105.094 29.6903C105.134 27.557 105.134 25.427 105.094 23.3003C105.094 22.2203 105.714 22.1703 106.534 22.1503C107.354 22.1303 107.734 22.4503 107.704 23.2903C107.704 24.3603 107.704 25.4203 107.704 26.4903H107.684Z" fill="#2C4B6B"/>
<path d="M108.044 19.5207C107.964 20.6107 107.464 21.1607 106.504 21.2107C106.324 21.2374 106.141 21.2266 105.966 21.1792C105.79 21.1318 105.627 21.0487 105.485 20.9351C105.343 20.8215 105.226 20.6799 105.142 20.5191C105.057 20.3584 105.007 20.1819 104.994 20.0007C104.949 19.8004 104.95 19.5926 104.996 19.3925C105.041 19.1924 105.131 19.005 105.259 18.8441C105.386 18.6831 105.548 18.5526 105.732 18.4621C105.916 18.3716 106.118 18.3233 106.324 18.3207C107.324 18.1507 107.754 18.8507 108.044 19.5207Z" fill="#31506E"/>
<path d="M69.8337 18.2502C70.0406 18.225 70.2505 18.2435 70.4499 18.3044C70.6492 18.3654 70.8335 18.4675 70.9909 18.6042C71.1483 18.7408 71.2752 18.909 71.3636 19.0978C71.4519 19.2866 71.4997 19.4918 71.5037 19.7002C71.5202 19.9044 71.4922 20.1098 71.4218 20.3022C71.3513 20.4946 71.2401 20.6695 71.0957 20.8149C70.9513 20.9602 70.7771 21.0726 70.5852 21.1443C70.3932 21.216 70.1881 21.2453 69.9837 21.2302C69.7985 21.2561 69.6099 21.2418 69.4308 21.1881C69.2517 21.1345 69.0862 21.0428 68.9457 20.9194C68.8053 20.796 68.693 20.6438 68.6168 20.4731C68.5405 20.3024 68.5019 20.1172 68.5037 19.9302C68.468 19.7308 68.4751 19.5261 68.5244 19.3296C68.5738 19.1331 68.6644 18.9493 68.7901 18.7905C68.9159 18.6316 69.074 18.5013 69.2539 18.4082C69.4338 18.3151 69.6314 18.2612 69.8337 18.2502Z" fill="#2C4B6B"/>
<path fill-rule="evenodd" clip-rule="evenodd" d="M59.9441 14.5399C62.6641 14.5399 64.3041 12.7999 64.3041 9.99994C64.3427 9.40435 64.2518 8.80747 64.0376 8.25039C63.8234 7.69332 63.4911 7.18928 63.0634 6.77299C62.6357 6.35671 62.1228 6.03807 61.5602 5.83901C60.9975 5.63995 60.3984 5.56521 59.8041 5.61994C59.2239 5.60373 58.6466 5.70826 58.1089 5.92688C57.5712 6.14551 57.0848 6.47347 56.6805 6.88997C56.2763 7.30647 55.9629 7.80242 55.7604 8.34639C55.5579 8.89035 55.4706 9.47046 55.5041 10.0499C55.4617 10.6462 55.5472 11.2446 55.7546 11.8052C55.9621 12.3657 56.2868 12.8756 56.7071 13.3006C57.1274 13.7256 57.6336 14.056 58.1918 14.2698C58.75 14.4835 59.3474 14.5756 59.9441 14.5399ZM59.9033 12.61C61.5533 12.61 61.6933 11.26 61.7433 9.99997C61.6933 8.80997 61.4133 7.56997 59.9533 7.52997C58.3233 7.52997 58.1333 8.94997 58.1433 10.17C58.1533 11.39 58.4233 12.61 59.9033 12.61Z" fill="#264667"/>
<path fill-rule="evenodd" clip-rule="evenodd" d="M82.3776 23.5577C81.7177 24.3619 81.4036 25.3948 81.5041 26.4302C81.5041 29.2702 83.3641 31.1302 86.1541 30.9302C87.4441 30.8502 89.4441 30.6902 89.2841 29.2902C89.1482 28.0816 88.3219 28.3919 87.4635 28.7144C87.1216 28.8428 86.7746 28.9731 86.4641 29.0102C85.3741 29.1402 84.4441 28.6702 84.3741 27.7302C84.2978 26.773 84.8902 26.8694 85.4773 26.9649C85.7367 27.0072 85.9949 27.0492 86.1941 27.0002C86.7668 26.9049 87.3514 26.9049 87.9241 27.0002C89.6541 27.1802 89.8641 26.2202 89.5841 24.8902C89.1641 22.8902 87.3941 21.8302 85.0241 22.1402C83.9891 22.2438 83.0374 22.7536 82.3776 23.5577ZM86.4837 23.9301C85.3037 23.4801 84.6336 24.0201 84.1136 25.4801C84.4941 25.455 84.8656 25.504 85.2196 25.5506C85.9914 25.6524 86.6795 25.7431 87.1936 25.0301C87.4836 24.6501 86.9737 24.1201 86.4837 23.9301Z" fill="#294969"/>
<path fill-rule="evenodd" clip-rule="evenodd" d="M106.624 12.16C107.404 13.94 108.954 14.6 110.824 14.6C110.986 14.6201 111.151 14.6201 111.314 14.6C111.574 14.5212 111.879 14.4749 112.189 14.4279C113.178 14.278 114.214 14.1208 113.994 12.88C113.785 11.7079 113.008 12.0404 112.242 12.3681C111.943 12.4961 111.645 12.6234 111.384 12.66C110.274 12.83 109.214 12.47 109.104 11.36C108.977 10.3514 109.606 10.4422 110.219 10.5306C110.476 10.5676 110.729 10.6042 110.924 10.56C111.494 10.4699 112.074 10.4699 112.644 10.56C114.504 10.75 114.764 9.82997 114.254 8.34997C114.094 7.75574 113.777 7.21588 113.335 6.78794C112.893 6.36 112.343 6.06002 111.744 5.91997C110.954 5.6689 110.109 5.65243 109.31 5.87254C108.511 6.09265 107.793 6.53989 107.244 7.15997C106.652 7.83579 106.277 8.67349 106.166 9.56482C106.056 10.4561 106.215 11.3601 106.624 12.16ZM111.354 7.62998C110.284 7.13998 109.524 7.46998 108.934 8.91998C109.291 8.91075 109.638 8.97248 109.97 9.03154C110.719 9.16449 111.391 9.28395 111.924 8.54998C112.164 8.21998 111.724 7.79998 111.354 7.62998Z" fill="#284868"/>
<path fill-rule="evenodd" clip-rule="evenodd" d="M98.6039 13.3206V11.1206C98.5705 10.6309 98.5772 10.1393 98.6239 9.65064C99.1639 6.57064 96.3939 4.41064 92.5339 6.25064C92.5015 6.26682 92.4685 6.28305 92.4351 6.29944C91.9528 6.53631 91.3985 6.80854 91.7539 7.50064C91.8 7.64101 91.8766 7.76943 91.9782 7.87666C92.0798 7.9839 92.2039 8.06729 92.3416 8.12084C92.4793 8.17438 92.6271 8.19676 92.7745 8.18635C92.9219 8.17594 93.0651 8.13301 93.1939 8.06064C93.5711 7.88993 93.9626 7.75273 94.3639 7.65064C95.2039 7.45064 95.8739 7.66064 96.0439 8.58064C96.1986 9.42059 95.7074 9.42451 95.222 9.42839C95.0487 9.42978 94.876 9.43116 94.7339 9.47064C94.0123 9.63488 93.301 9.84191 92.6039 10.0906C92.0463 10.2704 91.5803 10.6598 91.3042 11.1766C91.028 11.6933 90.9634 12.2971 91.1239 12.8606C91.3939 14.1306 92.4139 14.4706 93.5439 14.5606C94.0791 14.6062 94.6115 14.4385 95.154 14.2676C96.0409 13.9882 96.955 13.7002 97.9539 14.3206C98.4739 14.6406 98.6039 13.8006 98.6039 13.3206ZM93.6335 12.0807C93.5335 12.7407 94.0235 12.8707 94.6335 12.8707C95.3235 12.8107 96.0135 12.6107 96.1435 11.7007C96.2535 11.0607 95.9435 10.8207 95.2535 10.9507C95.1943 10.9618 95.134 10.9725 95.0733 10.9832C94.4264 11.0974 93.7249 11.2213 93.6335 12.0807Z" fill="#274768"/>
</g>
<defs>
<clipPath id="clip0_1740_1994">
<rect width="124" height="36" fill="white" transform="translate(0.503662)"/>
</clipPath>
</defs>
</svg>
